<svg width="840" height="259" viewBox="0 0 840 259" fill="none" xmlns="http://www.w3.org/2000/svg">
<path d="M70.8067 2.39571C71.8516 2.39571 72.374 2.64319 72.374 3.13815L76.0862 2.39571C97.0395 2.89067 113.208 3.13815 124.592 3.13815C128.497 3.13815 131.247 7.67527 132.841 16.7495C132.347 20.2142 132.099 22.9915 132.099 25.0813V30.3609C132.099 32.1757 129.844 36.2179 125.335 42.4874L118.488 56.8412V69.7101C118.488 70.205 118.24 70.4525 117.745 70.4525L118.488 72.0199C117.498 80.3242 117.003 86.8686 117.003 91.6532V96.1904C122.337 95.2005 126.627 94.7055 129.872 94.7055C135.426 96.6853 138.204 99.7101 138.204 103.78V106.09C137.379 127.263 135.344 137.849 132.099 137.849C126.325 149.673 120.77 159.765 115.435 168.124L104.876 185.53C102.841 188.995 101.824 192.02 101.824 194.605C98.7993 197.134 97.0395 198.399 96.5445 198.399C96.0496 198.399 95.8021 198.152 95.8021 197.657L57.1953 202.194V202.936L55.7104 202.194L50.3484 202.936V202.194C46.8287 202.689 45.0688 203.184 45.0688 203.679L43.584 202.936H39.7893C33.4098 202.936 29.6151 202.167 28.4052 200.627L26.9203 201.452C23.1257 200.407 19.606 199.884 16.3612 199.884H13.309C12.814 199.884 12.5665 200.132 12.5665 200.627C10.0368 200.022 8.77187 199.279 8.77187 198.399L7.28699 199.142H5.71962C3.73979 193.092 2.74987 188.555 2.74987 185.53V180.251C2.74987 179.096 2.47489 178.079 1.92494 177.199C1.92494 176.704 2.19992 176.456 2.74987 176.456L1.92494 172.661V170.352C1.92494 169.857 2.19992 169.609 2.74987 169.609L1.92494 168.124C0.935022 153.551 0.440063 144.201 0.440063 140.077H1.1825C1.1825 139.582 0.935022 139.334 0.440063 139.334C1.42998 131.25 2.19992 127.208 2.74987 127.208C2.74987 126.713 2.47489 126.465 1.92494 126.465L2.74987 122.671C2.74987 122.176 2.47489 121.433 1.92494 120.443C1.92494 118.903 4.20725 105.787 8.77187 81.0941C8.77187 76.5295 12.814 62.8907 20.8984 40.1776C27.6078 26.7587 31.375 19.9667 32.1999 19.8018C32.1999 14.7422 38.2494 10.2051 50.3484 6.19039C58.3227 3.6606 65.1422 2.39571 70.8067 2.39571ZM29.9726 57.5836C30.4676 58.4635 30.715 59.7284 30.715 61.3783C30.2201 62.3682 29.9726 63.1381 29.9726 63.6881H30.715C30.2201 64.678 29.4501 68.9676 28.4052 76.557H29.2302C28.6802 77.5469 28.4052 78.2894 28.4052 78.7843C28.4052 81.5341 28.9277 90.6358 29.9726 106.09H30.715L29.9726 107.574V109.802C29.9726 110.957 30.2201 111.974 30.715 112.854C30.715 113.349 30.4676 113.596 29.9726 113.596L30.715 117.391V122.671C30.715 125.695 31.7324 130.26 33.7673 136.365H35.2522L36.737 135.54C36.737 136.09 37.7544 136.859 39.7893 137.849L41.2741 137.107H44.3264C47.1312 137.107 50.9258 137.602 55.7104 138.592V137.849C58.9552 139.334 62.9698 140.077 67.7544 140.077H71.5491C72.0991 140.077 72.374 140.352 72.374 140.902C75.8938 140.352 77.6536 139.829 77.6536 139.334L79.1385 140.077L83.6756 139.334L85.1605 140.077C85.1605 138.702 95.2521 137.464 115.435 136.365C115.435 135.815 117.965 135.292 123.025 134.797L124.592 135.54C129.597 135.54 132.099 125.2 132.099 104.522V103.78C131.109 101.745 129.597 100.727 127.562 100.727L122.282 102.295C121.787 102.295 121.54 102.047 121.54 101.552L113.951 103.037V102.295L112.466 103.037H111.723L110.156 102.295C110.651 88.491 111.421 78.8943 112.466 73.5048C112.466 73.0098 112.218 72.7623 111.723 72.7623L112.466 63.6881V56.8412C112.466 55.7412 112.218 54.7513 111.723 53.8714C112.218 52.8815 112.466 52.1116 112.466 51.5616C111.971 45.2921 111.723 42.0199 111.723 41.7449C112.108 36.1904 112.851 33.4131 113.951 33.4131H121.54L123.025 34.1556L126.077 30.3609V19.0593C126.077 18.5094 126.325 18.2344 126.819 18.2344C125.775 12.1849 124.51 9.16014 123.025 9.16014H119.23C107.736 9.16014 94.1247 8.91266 78.396 8.4177C75.6463 8.91266 73.364 9.16014 71.5491 9.16014C70.6142 8.66518 69.8718 8.4177 69.3218 8.4177C50.1284 11.5524 40.5317 15.0996 40.5317 19.0593C38.5519 19.0593 35.5271 28.1336 31.4575 46.282C31.4575 47.4369 30.9625 51.2041 29.9726 57.5836Z" fill="#FDD03B"/>
<path d="M215.582 26.4837C222.676 26.8687 226.224 27.3911 226.224 28.0511L233.813 27.3086H270.852C281.962 29.2335 287.516 34.7605 287.516 43.8897C288.561 47.9594 289.083 50.4892 289.083 51.4791V62.8632C289.083 69.0226 288.561 74.8247 287.516 80.2692L289.083 112.854C289.083 125.173 283.776 139.032 273.162 154.43C273.162 157.785 270.88 162.322 266.315 168.042C264.665 168.427 260.898 174.999 255.014 187.758C254.409 187.758 252.127 189.765 248.167 193.78C243.327 196.859 238.543 198.399 233.813 198.399C233.813 199.884 232.796 200.627 230.761 200.627C224.051 200.627 211.182 200.874 192.154 201.369L183.08 200.627C179.505 201.122 174.445 201.369 167.901 201.369H164.931C161.852 201.369 157.287 197.602 151.237 190.068V187.015C150.248 168.097 149.753 156.74 149.753 152.946V112.029C149.753 104.66 155.307 89.5359 166.416 66.6578C170.541 45.4296 174.336 34.8155 177.8 34.8155C180.165 30.3059 192.759 27.5286 215.582 26.4837ZM177.8 46.1995V90.0859C178.79 111.974 179.285 123.853 179.285 125.723C179.285 128.748 183.327 133.037 191.412 138.592H195.949C202.823 138.592 207.608 138.317 210.303 137.767C210.632 137.767 213.905 138.042 220.119 138.592C238.818 138.042 252.209 137.767 260.293 137.767C260.293 136.117 263.813 134.852 270.852 133.972C278.442 130.727 282.236 125.943 282.236 119.618C282.236 116.319 282.484 113.789 282.979 112.029L281.494 94.623L282.236 93.1381C281.742 88.8485 281.494 85.5763 281.494 83.3214C282.484 71.5524 282.979 64.238 282.979 61.3783V53.0465C281.879 41.9374 280.119 36.3829 277.699 36.3829C273.63 34.348 270.852 33.3306 269.368 33.3306H239.835C235.765 33.3306 230.981 33.5781 225.481 34.0731C224.821 33.5781 221.274 33.0831 214.84 32.5882C193.391 32.5882 181.292 36.3554 178.543 43.8897C178.048 43.8897 177.8 44.6597 177.8 46.1995ZM234.555 72.6798C236.315 72.6798 237.58 75.4571 238.35 81.0116V96.9328C236.755 99.9576 233.456 101.47 228.451 101.47C225.811 101.47 224.299 98.9401 223.914 93.8806V77.217L230.018 72.6798H234.555Z" fill="#FDD03B"/>
<path d="M363.575 37.8677H370.339C373.694 37.8677 377.983 39.6276 383.208 43.1473C384.198 45.4571 385.215 46.722 386.26 46.942H387.003C389.313 41.8824 394.097 39.3526 401.357 39.3526H418.845C419.34 39.3526 419.587 39.6276 419.587 40.1776C420.082 40.1776 420.33 39.9026 420.33 39.3526L429.404 40.1776H433.941C443.51 40.1776 448.295 56.3187 448.295 88.601C449.34 105.815 449.862 117.914 449.862 124.898V132.487C449.862 134.302 449.615 136.584 449.12 139.334C449.615 140.214 449.862 141.204 449.862 142.304C449.862 145.604 445.82 152.946 437.736 164.33C433.336 174.229 429.542 180.773 426.352 183.963C426.352 185.173 423.85 189.985 418.845 198.399C416.92 203.514 414.885 207.529 412.741 210.443H411.998C409.908 210.443 407.131 210.196 403.666 209.701C403.171 209.701 402.924 209.948 402.924 210.443C402.374 210.443 401.604 210.196 400.614 209.701C395.115 210.196 390.33 210.443 386.26 210.443H385.518V205.164L377.928 213.496C352.191 211.241 339.322 209.481 339.322 208.216C339.322 207.061 339.074 206.044 338.579 205.164L339.322 203.679C338.827 202.799 338.579 201.782 338.579 200.627H337.837C337.837 202.276 336.324 203.789 333.3 205.164C332.75 206.044 332.475 207.061 332.475 208.216H303.025C303.025 204.696 302.502 202.936 301.457 202.936L302.2 201.369V194.605C302.2 194.055 302.475 193.78 303.025 193.78L302.2 192.295V180.168L301.457 178.683H302.2C301.705 177.584 301.21 175.301 300.715 171.837C300.715 171.342 300.962 171.094 301.457 171.094L300.715 167.299V155.998L301.457 151.461C301.457 150.911 301.21 150.636 300.715 150.636L301.457 145.356V131.002C301.457 129.848 301.21 128.83 300.715 127.95C300.715 120.196 303.74 109.609 309.789 96.1904C315.839 81.8916 318.863 72.5423 318.863 68.1427C320.403 65.6129 322.438 59.0685 324.968 48.5094C326.948 44.5497 330.715 41.7724 336.269 40.1776L340.064 39.3526H340.807C341.961 39.3526 342.979 39.6276 343.859 40.1776C348.203 38.6377 354.775 37.8677 363.575 37.8677ZM343.116 46.1995L340.064 45.4571C333.025 47.217 329.505 50.7367 329.505 56.0162C329.505 61.5708 329.258 64.348 328.763 64.348L329.505 68.1427V82.4965L328.763 87.1161C328.763 87.6111 329.01 87.8586 329.505 87.8586L328.763 93.1381V104.522C328.763 105.622 329.01 106.612 329.505 107.492L328.763 109.059C329.258 112.524 329.753 114.779 330.247 115.824H329.505L330.247 117.391V129.435C330.247 129.985 330.495 130.26 330.99 130.26L330.247 131.745V138.592C330.247 139.087 330 139.334 329.505 139.334C330.495 141.149 330.99 143.156 330.99 145.356H360.522C360.522 144.201 360.77 143.184 361.265 142.304L360.522 140.819C360.522 137.024 362.282 135.017 365.802 134.797V135.54L367.369 140.819L366.544 142.304C366.544 145.879 369.569 147.666 375.619 147.666L406.719 150.636V137.024L405.976 129.435H410.513C411.503 129.435 412.246 132.735 412.741 139.334C413.236 139.334 413.483 140.077 413.483 141.562V147.666H414.225C418.295 147.666 423.107 147.391 428.662 146.841L430.147 147.666L431.714 146.841C435.124 147.391 437.901 147.666 440.046 147.666H440.788C441.393 147.666 442.383 145.879 443.758 142.304L443.016 140.819V138.592L443.758 133.972C443.758 133.477 443.51 133.23 443.016 133.23L443.758 127.95V118.134C443.758 117.639 443.51 117.391 443.016 117.391L443.758 115.824C441.943 70.3975 439.441 47.6844 436.251 47.6844C436.251 46.8045 434.986 46.3095 432.456 46.1995H423.382C422.832 46.1995 422.557 45.9521 422.557 45.4571C422.062 45.4571 421.815 45.7046 421.815 46.1995L412.741 45.4571H402.924C397.479 45.4571 393.437 47.4644 390.797 51.4791L384.775 56.7587C383.236 53.7339 382.466 51.9741 382.466 51.4791H381.723L380.238 52.2215C380.238 48.3169 376.939 45.5396 370.339 43.8897H365.06C358.625 43.8897 351.311 44.6597 343.116 46.1995Z" fill="#FDD03B"/>
<path d="M522.704 0.828339H544.647C548.497 0.828339 550.779 2.86317 551.494 6.93283C550.999 13.4773 550.752 18.7568 550.752 22.7715H549.927C550.971 24.4764 551.494 25.9887 551.494 27.3086C551.494 28.3535 551.246 28.876 550.752 28.876C551.741 35.2555 552.236 39.0226 552.236 40.1776L550.752 43.2298C551.741 44.8797 552.236 46.392 552.236 47.7669V52.304C551.301 55.7687 550.532 61.3233 549.927 68.9676C549.432 68.9676 549.184 69.2151 549.184 69.7101L549.927 73.5048L546.957 105.265C553.996 105.265 558.011 108.812 559.001 115.906V118.134C559.001 133.312 557.488 140.902 554.464 140.902C550.229 151.296 545.197 160.865 539.367 169.609C539.367 170.544 537.855 173.569 534.83 178.683C534.83 180.828 532.301 186.135 527.241 194.605C527.241 196.639 526.224 198.152 524.189 199.142H518.909C518.414 199.142 518.167 198.894 518.167 198.399C509.532 202.414 499.936 204.421 489.377 204.421V203.679L483.355 205.164V204.421L481.87 205.164C481.375 205.164 481.127 204.916 481.127 204.421L479.56 205.164H471.228C466.499 205.164 463.226 203.926 461.411 201.452C462.401 194.632 462.896 189.573 462.896 186.273C462.896 185.778 462.649 185.53 462.154 185.53L465.206 157.483C465.206 156.988 464.959 156.74 464.464 156.74L465.206 152.946V151.461C465.206 148.546 464.959 144.504 464.464 139.334C464.959 138.454 465.206 137.464 465.206 136.365H464.464C464.959 135.375 465.206 134.605 465.206 134.055C465.206 133.065 464.959 132.57 464.464 132.57L465.206 127.208V116.649L473.538 104.522H472.796L468.258 105.265C467.269 104.77 466.499 104.522 465.949 104.522C466.939 95.3929 467.434 87.5836 467.434 81.0941C467.434 80.5992 467.186 80.3517 466.691 80.3517C467.461 78.3169 468.231 77.2994 469.001 77.2994L468.258 73.5048V68.2252C469.633 68.2252 472.136 62.1757 475.765 50.0767C477.14 50.0767 478.405 46.0346 479.56 37.9502C482.585 33.0556 486.132 22.7165 490.202 6.93283C492.291 3.41312 497.323 1.65327 505.298 1.65327C508.818 1.10332 514.62 0.828339 522.704 0.828339ZM496.224 9.90258V10.7275L496.966 14.5222C496.581 14.5222 495.839 15.2646 494.739 16.7495L495.481 18.2344C495.481 24.7788 494.959 32.6157 493.914 41.7449C494.959 41.7449 495.481 41.9924 495.481 42.4874C504.885 40.9475 511.43 40.1776 515.115 40.1776H544.647L546.132 39.4351C545.637 38.9402 545.142 34.898 544.647 27.3086C545.142 27.3086 545.389 27.0611 545.389 26.5662C544.4 26.5662 543.905 26.0712 543.905 25.0813V22.0291L544.647 20.5442H543.905C544.4 19.5543 544.647 18.7843 544.647 18.2344C544.152 15.5946 543.905 14.0822 543.905 13.6973C544.895 12.0474 545.389 10.535 545.389 9.16014V6.93283H524.189C505.545 6.93283 496.224 7.92275 496.224 9.90258ZM517.424 50.0767C514.785 49.5818 512.255 49.3343 509.835 49.3343H505.298L503.813 48.5094C503.813 49.5543 500.513 51.0666 493.914 53.0465L493.171 54.6138V64.4305L492.429 68.9676C492.924 69.7926 493.171 71.0575 493.171 72.7623H492.429C492.429 73.2573 492.676 73.5048 493.171 73.5048C493.171 74.6597 492.924 75.6771 492.429 76.557C492.924 81.7266 493.171 85.7687 493.171 88.6835V90.1684C493.171 91.3233 492.924 92.3407 492.429 93.2206C492.429 93.7156 492.676 93.9631 493.171 93.9631L490.202 121.928C490.697 122.918 490.944 123.688 490.944 124.238C490.944 127.043 490.422 131.827 489.377 138.592C491.191 141.122 494.491 142.387 499.276 142.387H507.608C508.103 142.387 508.35 142.139 508.35 141.644L509.835 142.387L511.32 141.644V142.387C514.895 141.892 516.682 141.397 516.682 140.902C517.617 141.397 518.359 141.644 518.909 141.644C528.753 141.644 537.58 139.609 545.389 135.54L546.957 136.365L552.236 135.54V128.775C552.236 128.28 552.484 128.033 552.979 128.033C552.979 127.483 552.731 127.208 552.236 127.208L552.979 123.496V118.134C552.209 113.624 550.944 111.369 549.184 111.369C547.369 112.359 545.362 112.854 543.162 112.854H541.595L540.11 112.112L540.852 109.059L540.11 106.09C540.99 104.22 541.76 100.178 542.42 93.9631H541.595L542.42 92.3957V91.6532C542.42 82.634 542.915 76.832 543.905 74.2472C543.41 73.3673 543.162 72.3774 543.162 71.2775V68.2252L543.905 66.7403C543.41 66.7403 543.162 66.4654 543.162 65.9154H544.647V56.8412C544.647 56.4012 545.142 54.3939 546.132 50.8192V47.0245C544.152 47.0245 543.162 46.777 543.162 46.282C541.457 47.107 532.878 48.3719 517.424 50.0767Z" fill="#FDD03B"/>
<path d="M639.514 39.3526H663.025C670.669 39.3526 675.454 42.1299 677.378 47.6844C678.698 47.6844 680.211 50.7092 681.916 56.7587V64.348C682.905 99.6001 683.923 120.553 684.968 127.208C684.968 131.937 682.191 138.757 676.636 147.666C673.006 154.321 667.699 162.377 660.715 171.837C655.765 188.5 650.981 196.832 646.361 196.832C634.152 199.362 626.563 200.627 623.593 200.627L624.418 199.142C624.418 195.457 623.153 193.175 620.623 192.295C615.784 198.839 613.006 202.112 612.291 202.112C606.737 201.727 603.96 201.232 603.96 200.627C603.19 201.122 599.89 201.617 594.06 202.112C589.056 201.122 584.519 200.627 580.449 200.627H572.942C571.897 200.627 571.375 200.132 571.375 199.142C572.915 199.142 573.685 197.354 573.685 193.78V185.53C573.685 184.375 573.437 183.358 572.942 182.478L574.427 178.683C573.437 178.683 572.942 178.189 572.942 177.199V168.042C572.942 162.377 572.667 155.063 572.117 146.099C572.667 145.164 572.942 144.421 572.942 143.871L572.117 142.304C572.667 141.369 572.942 140.627 572.942 140.077H572.117L572.942 138.592C571.402 134.082 570.632 127.263 570.632 118.134V112.854C575.692 96.6303 580.752 82.2215 585.811 69.6276C588.286 57.1986 590.293 48.6193 591.833 43.8897C595.353 43.2298 597.113 42.4874 597.113 41.6624C614.766 42.3774 623.593 43.3948 623.593 44.7147C627.828 41.14 633.135 39.3526 639.514 39.3526ZM622.85 52.2215C622.85 49.7467 616.554 48.5094 603.96 48.5094H602.392L598.68 47.6844V55.2738C598.68 63.8531 599.422 70.92 600.907 76.4745H600.165L600.907 77.9594L600.165 79.5268C600.165 80.0217 600.412 80.2692 600.907 80.2692C600.907 81.4241 600.66 82.4415 600.165 83.3214C600.66 92.2857 600.907 99.6001 600.907 105.265V114.339C601.072 115.329 601.567 115.824 602.392 115.824C602.007 117.859 601.512 118.876 600.907 118.876L601.65 122.671V131.002C601.65 134.522 600.907 136.282 599.422 136.282C599.587 137.272 600.082 137.767 600.907 137.767H608.497C612.511 137.767 617.048 138.289 622.108 139.334C628.158 138.949 631.182 138.427 631.182 137.767C632.392 138.317 634.922 138.839 638.772 139.334L643.309 137.024L642.566 135.54V128.693C643.116 128.693 643.859 128.445 644.794 127.95C649.523 127.95 652.053 130.975 652.383 137.024C651.888 137.024 651.641 137.272 651.641 137.767C657.525 137.272 666.352 135.76 678.121 133.23V129.435C678.121 128.335 678.368 127.345 678.863 126.465C678.368 123.936 677.873 122.671 677.378 122.671C677.873 121.681 678.121 120.911 678.121 120.361C678.121 114.311 677.626 111.287 676.636 111.287L677.378 109.802V109.059C677.378 107.904 677.131 106.887 676.636 106.007C677.131 105.017 677.378 104.247 677.378 103.697C677.378 103.367 677.131 101.855 676.636 99.1601C676.636 98.6652 676.883 98.4177 677.378 98.4177C676.389 91.7632 675.894 80.9291 675.894 65.9154L675.069 61.3783C675.619 60.6083 675.894 59.0685 675.894 56.7587C672.484 49.2243 668.442 45.4571 663.767 45.4571H640.999C635.554 45.4571 630.275 47.217 625.16 50.7367L622.85 52.2215Z" fill="#FDD03B"/>
<path d="M769.193 14.5222L772.163 15.2646L775.958 14.5222C779.312 15.0172 782.612 15.2646 785.857 15.2646H788.084C788.579 15.2646 788.827 15.5121 788.827 16.0071L790.394 15.2646C800.073 15.2646 807.388 16.5295 812.337 19.0593C813.217 18.5094 814.207 18.2344 815.307 18.2344L818.359 19.0593C820.889 17.5194 822.896 16.7495 824.381 16.7495C829.221 16.7495 833.785 23.5689 838.075 37.2078C839.065 48.8118 839.56 57.6386 839.56 63.6881H838.817L839.56 65.173L838.817 70.4525L839.56 74.9896L838.075 90.9108C838.57 97.1803 838.817 103.477 838.817 109.802C838.817 116.456 838.048 131.112 836.508 153.771C837.003 156.355 837.25 159.38 837.25 162.845V169.609C836.095 184.238 834.335 191.552 831.971 191.552C825.866 199.692 819.322 210.801 812.337 224.88C809.972 227.684 807.938 231.974 806.233 237.749C804.198 237.749 802.438 241.268 800.953 248.308L796.416 253.67C796.416 254.165 795.151 254.66 792.621 255.155L791.136 254.412H789.569C787.754 254.412 781.457 255.402 770.678 257.382C770.183 257.382 769.936 257.134 769.936 256.639L766.141 257.382H760.119C759.569 257.382 759.294 257.657 759.294 258.207L757.809 257.382H751.045C749.89 257.382 748.872 257.657 747.992 258.207C746.673 257.822 743.648 257.299 738.918 256.639C737.928 257.134 737.158 257.382 736.608 257.382C736.168 257.382 734.161 257.134 730.586 256.639C729.707 256.639 728.194 257.162 726.049 258.207C725.169 257.657 724.152 257.382 722.997 257.382C722.007 257.932 721.265 258.207 720.77 258.207V257.382L719.202 258.207H717.718C715.298 258.207 712.768 257.932 710.128 257.382H704.106C701.576 255.237 700.312 251.717 700.312 246.823V236.264C700.312 235.714 700.559 235.439 701.054 235.439L700.312 233.954C700.806 229.499 701.054 226.722 701.054 225.622C700.559 225.622 700.312 225.375 700.312 224.88H701.054L700.312 223.395C700.312 221.36 702.319 216.548 706.333 208.958C706.333 208.573 707.103 206.566 708.643 202.936C704.299 202.936 701.274 198.894 699.569 190.81C698.909 176.181 697.892 167.849 696.517 165.815L697.259 162.02V150.718L696.517 143.129H697.259C697.259 142.634 697.012 142.387 696.517 142.387L697.259 133.312V130.26C697.259 129.765 697.012 129.518 696.517 129.518C697.507 126.988 698.002 125.228 698.002 124.238H697.259C697.754 122.203 698.524 116.649 699.569 107.574L698.827 106.09C698.827 104.605 702.099 96.0254 708.643 80.3517C708.643 77.4919 712.685 64.8705 720.77 42.4874C720.77 37.3178 723.025 32.0107 727.534 26.5662C728.689 26.5662 736.251 23.5414 750.22 17.4919C756.049 16.0071 762.374 15.0172 769.193 14.5222ZM726.792 43.2298L727.534 44.7147C726.544 55.3288 725.802 60.6358 725.307 60.6358C725.307 61.1308 725.554 61.3783 726.049 61.3783C725.664 64.403 725.142 65.9154 724.482 65.9154L725.307 67.4828V70.4525L724.482 79.5268H725.307C725.307 80.0767 725.032 80.3517 724.482 80.3517L725.307 87.8586V99.2426C725.307 100.398 725.032 101.415 724.482 102.295C725.362 104.275 726.627 114.091 728.277 131.745C730.147 136.804 732.429 139.334 735.124 139.334C736.114 140.324 739.881 142.084 746.425 144.614C746.425 143.129 746.948 142.387 747.992 142.387C750.522 143.046 751.787 143.789 751.787 144.614V146.924C751.787 150.443 748.24 152.203 741.146 152.203H736.608C735.619 151.708 734.876 151.461 734.381 151.461L733.639 152.946L732.071 152.203C730.202 152.203 728.937 155.228 728.277 161.277C728.772 161.277 729.019 161.525 729.019 162.02H728.277L729.019 163.587C728.524 168.042 728.277 170.819 728.277 171.919H729.019L728.277 173.404V184.046C728.277 189.435 729.789 193.202 732.814 195.347C734.354 195.347 736.141 195.1 738.176 194.605C740.816 195.1 743.318 195.347 745.683 195.347H747.25C747.745 195.347 747.992 195.1 747.992 194.605C748.487 194.605 748.735 194.852 748.735 195.347L752.53 194.605L754.015 195.347C756.104 194.357 757.617 193.862 758.552 193.862C762.181 194.357 764.216 194.605 764.656 194.605C765.151 194.605 765.894 194.357 766.883 193.862C772.438 194.357 775.215 194.852 775.215 195.347L779.01 194.605H785.857C786.352 194.605 786.599 194.852 786.599 195.347L788.084 194.605H794.106C795.261 194.605 796.278 194.357 797.158 193.862C797.653 193.862 797.901 194.11 797.901 194.605L817.617 191.552H819.102C819.597 191.552 819.844 191.8 819.844 192.295C822.759 192.02 824.794 190.782 825.948 188.583C828.588 188.583 830.348 181.516 831.228 167.382C831.228 161.882 830.981 157.345 830.486 153.771C830.981 149.426 831.476 138.812 831.971 121.928H832.713L831.971 120.443C832.465 119.453 832.713 118.683 832.713 118.134L831.971 116.649L832.713 115.164C832.713 114.614 832.465 114.339 831.971 114.339L832.713 110.627C832.713 108.317 832.465 100.727 831.971 87.8586C832.465 86.9236 832.713 86.1812 832.713 85.6312C832.713 85.1363 832.465 84.8888 831.971 84.8888C832.575 80.1592 833.098 77.1345 833.538 75.8146C832.988 74.9346 832.713 73.9172 832.713 72.7623V67.4828C832.713 66.9878 832.988 66.7403 833.538 66.7403L832.713 65.173L833.538 60.6358C833.538 44.6872 831.503 33.3306 827.433 26.5662C826.443 26.5662 825.948 26.0712 825.948 25.0813L824.381 25.8237V22.7715H823.639C823.639 24.8063 823.144 25.8237 822.154 25.8237L820.669 25.0813L819.102 25.8237L814.564 24.3389L813.822 25.8237C807.278 24.1739 804.005 22.909 804.005 22.0291C803.455 22.0291 802.685 22.2765 801.696 22.7715C801.421 22.7715 798.643 22.2765 793.364 21.2866L788.084 22.0291C787.204 21.5341 786.187 21.2866 785.032 21.2866V22.0291C784.097 21.5341 783.355 21.2866 782.805 21.2866L779.752 22.0291C778.268 21.5341 777.525 21.0391 777.525 20.5442L773.73 21.2866H771.421C770.321 21.2866 769.331 21.0391 768.451 20.5442C760.366 20.5442 748.24 24.3389 732.071 31.9282C729.927 31.9282 728.167 35.6954 726.792 43.2298ZM757.067 53.8714H760.861C762.126 54.8613 763.391 55.3563 764.656 55.3563L763.831 59.151V68.9676C763.831 74.8522 763.584 84.1739 763.089 96.9328H762.346C763.886 99.6826 764.656 104.247 764.656 110.627C761.356 113.101 759.074 114.339 757.809 114.339C756.599 112.194 755.334 109.169 754.015 105.265C754.674 97.6752 755.197 93.3856 755.582 92.3957C755.032 88.381 754.509 86.3737 754.015 86.3737C754.015 85.8787 754.262 85.6312 754.757 85.6312L753.272 72.0199C753.767 59.9209 755.032 53.8714 757.067 53.8714Z" fill="#FDD03B"/>
</svg>
