<svg width="32" height="32" viewBox="0 0 32 32" fill="none" xmlns="http://www.w3.org/2000/svg">
<path fill-rule="evenodd" clip-rule="evenodd" d="M16 0.5C24.5604 0.5 31.5 7.43959 31.5 16C31.5 24.5604 24.5604 31.5 16 31.5C7.43959 31.5 0.5 24.5604 0.5 16C0.5 7.43959 7.43959 0.5 16 0.5ZM21.5565 13.661C21.5565 15.8701 19.7657 17.661 17.5566 17.661C15.3475 17.661 13.5566 15.8701 13.5566 13.661C13.5566 11.4518 15.3475 9.66101 17.5566 9.66101C19.7657 9.66101 21.5565 11.4518 21.5565 13.661Z" fill="#00202E"/>
<path d="M17.4434 28V4C12.4434 4 8.44342 8.06154 8.44342 13.1385V28H17.4434Z" fill="#FDD03B"/>
<path d="M17.5566 17.661C19.7657 17.661 21.5565 15.8701 21.5565 13.661C21.5565 11.4518 19.7657 9.66101 17.5566 9.66101C15.3475 9.66101 13.5566 11.4518 13.5566 13.661C13.5566 15.8701 15.3475 17.661 17.5566 17.661Z" fill="white"/>
</svg>
