<svg width="565" height="190" viewBox="0 0 565 190" fill="none" xmlns="http://www.w3.org/2000/svg">
<path d="M58.5664 4.84981C74.3997 4.84981 87.3997 8.01647 97.5664 14.3498C107.9 20.5165 115.9 26.4331 121.566 32.0998C122.233 32.7665 122.566 33.5165 122.566 34.3498C122.566 34.8498 122.316 35.5165 121.816 36.3498C121.483 37.0165 121.233 37.5165 121.066 37.8498C120.233 39.0165 118.816 41.0998 116.816 44.0998C114.983 46.9331 113.483 49.0165 112.316 50.3498C111.816 51.0165 111.233 51.7665 110.566 52.5998C110.066 53.2665 109.566 53.7665 109.066 54.0998C108.733 54.4331 108.15 54.5998 107.316 54.5998C106.983 54.5998 106.15 54.0998 104.816 53.0998C103.65 51.9331 102.483 50.9331 101.316 50.0998C94.6497 44.2665 88.1497 39.2665 81.8164 35.0998C75.4831 30.9331 69.3997 28.8498 63.5664 28.8498C58.8997 28.8498 55.0664 29.9331 52.0664 32.0998C49.0664 34.0998 47.5664 38.7665 47.5664 46.0998C47.5664 53.2665 50.2331 58.8498 55.5664 62.8498C60.8997 66.8498 67.9831 70.6831 76.8164 74.3498C77.6497 74.6831 82.4831 76.7665 91.3164 80.5998C100.316 84.4331 108.233 91.7665 115.066 102.6C122.066 113.433 125.566 126.35 125.566 141.35C125.566 157.35 119.566 169.35 107.566 177.35C95.5664 185.35 78.9831 189.35 57.8164 189.35C33.8164 189.35 18.5664 184.766 12.0664 175.6C5.56641 166.266 2.14974 161.433 1.81641 161.1C1.14974 160.266 0.816406 159.433 0.816406 158.6C0.816406 158.1 1.48307 157.016 2.81641 155.35C4.98307 152.35 8.14974 148.766 12.3164 144.6C12.9831 143.933 13.6497 143.6 14.3164 143.6C15.1497 143.6 16.0664 144.266 17.0664 145.6C18.0664 146.766 18.8997 147.683 19.5664 148.35C29.3997 158.183 40.5664 163.1 53.0664 163.1C59.3997 163.1 64.8997 161.933 69.5664 159.6C74.2331 157.1 76.5664 152.516 76.5664 145.85C76.5664 134.35 67.4831 122.1 49.3164 109.1C46.3164 107.1 43.4831 105.433 40.8164 104.1C33.8164 100.266 27.8164 96.5165 22.8164 92.8498C17.8164 89.1831 13.3997 84.3498 9.56641 78.3498C5.73307 72.3498 3.81641 65.3498 3.81641 57.3498C3.81641 47.3498 6.89974 38.3498 13.0664 30.3498C19.3997 22.3498 26.8997 16.0998 35.5664 11.5998C44.3997 7.0998 52.0664 4.84981 58.5664 4.84981Z" fill="#00202E"/>
<path d="M203.859 5.5998C220.526 5.5998 233.026 10.4331 241.359 20.0998C249.693 29.5998 255.026 40.9331 257.359 54.0998C259.693 67.0998 260.859 81.8498 260.859 98.3498C260.859 111.683 258.859 125.433 254.859 139.6C250.859 153.6 244.693 165.433 236.359 175.1C228.026 184.766 217.776 189.6 205.609 189.6C181.776 189.6 165.943 179.6 158.109 159.6C150.276 139.433 146.359 117.85 146.359 94.8498C146.359 72.6831 149.359 54.9331 155.359 41.5998C161.526 28.2665 168.943 18.9331 177.609 13.5998C186.443 8.26646 195.193 5.5998 203.859 5.5998ZM203.609 126.1C208.109 126.1 211.443 123.6 213.609 118.6C215.776 113.6 216.859 107.6 216.859 100.6C216.859 93.9331 215.776 88.0998 213.609 83.0998C211.609 78.0998 208.859 75.5998 205.359 75.5998C201.193 75.5998 198.026 78.5165 195.859 84.3498C193.859 90.0165 192.859 96.1831 192.859 102.85C192.859 109.683 193.526 115.266 194.859 119.6C196.193 123.933 199.109 126.1 203.609 126.1Z" fill="#00202E"/>
<path d="M380.846 9.5998C390.846 16.2665 398.846 25.2665 404.846 36.5998C411.012 47.9331 415.262 59.0165 417.596 69.8498C420.096 80.5165 421.346 88.9331 421.346 95.0998C421.346 105.433 419.679 117.433 416.346 131.1C413.179 144.766 406.262 157.516 395.596 169.35C384.929 181.016 369.512 186.85 349.346 186.85C321.679 186.85 302.012 170.766 290.346 138.6C285.179 124.1 282.262 107.933 281.596 90.0998C281.596 75.4331 284.679 61.5165 290.846 48.3498C297.012 35.0165 305.096 24.3498 315.096 16.3498C325.262 8.3498 335.679 4.3498 346.346 4.3498C356.012 4.3498 363.179 4.5998 367.846 5.0998C372.679 5.5998 377.012 7.0998 380.846 9.5998ZM348.096 172.85C365.762 172.85 378.929 165.516 387.596 150.85C396.262 136.016 400.596 117.433 400.596 95.0998C400.596 81.4331 398.512 68.8498 394.346 57.3498C390.346 45.6831 384.596 36.4331 377.096 29.5998C369.762 22.5998 361.262 19.0998 351.596 19.0998C350.762 19.0998 348.512 19.0998 344.846 19.0998C341.346 19.0998 338.262 19.6831 335.596 20.8498C332.929 22.0165 330.512 23.7665 328.346 26.0998C322.846 31.5998 318.179 36.6831 314.346 41.3498C310.679 45.8498 306.929 52.5998 303.096 61.5998C299.429 70.5998 297.596 81.0165 297.596 92.8498C297.596 106.85 299.262 119.933 302.596 132.1C306.096 144.1 311.596 153.933 319.096 161.6C326.596 169.1 336.262 172.85 348.096 172.85Z" fill="#00202E"/>
<path d="M517.014 28.3498C517.014 18.0165 517.097 11.5998 517.264 9.0998C517.264 5.93313 518.347 4.01646 520.514 3.3498C522.68 2.68313 525.847 2.34979 530.014 2.34979C533.68 2.34979 538.347 2.18313 544.014 1.8498C549.847 1.3498 554.347 0.849798 557.514 0.349804C559.847 0.18313 561.514 0.599797 562.514 1.5998C563.514 2.43314 564.014 3.93314 564.014 6.0998C564.014 6.76647 563.847 8.5998 563.514 11.5998C563.18 14.0998 563.014 30.6831 563.014 61.3498V117.85C563.014 126.35 563.097 135.766 563.264 146.1C563.597 156.266 563.93 165.433 564.264 173.6C564.597 181.766 564.764 184.016 564.764 180.35C564.764 183.016 563.43 184.35 560.764 184.35C559.597 184.35 558.597 184.266 557.764 184.1C557.097 183.933 555.764 183.85 553.764 183.85C551.764 183.85 548.597 184.016 544.264 184.35C539.597 184.683 536.347 184.85 534.514 184.85C531.347 184.85 528.93 184.183 527.264 182.85C525.764 181.516 524.18 179.1 522.514 175.6L518.264 167.1C513.264 155.933 508.847 147.183 505.014 140.85C502.847 137.183 497.347 127.1 488.514 110.6L477.514 89.8498V99.3498V105.1C477.514 106.433 477.43 108.1 477.264 110.1C477.264 112.1 477.347 114.35 477.514 116.85C477.514 125.516 477.597 136.85 477.764 150.85C478.097 164.85 478.514 173.266 479.014 176.1C479.18 176.933 479.264 177.933 479.264 179.1C479.264 180.766 478.93 181.85 478.264 182.35C477.597 182.683 476.347 182.766 474.514 182.6C471.847 182.6 468.68 182.766 465.014 183.1C461.514 183.433 458.18 183.766 455.014 184.1C452.514 184.433 450.847 184.016 450.014 182.85C449.347 181.683 449.097 179.1 449.264 175.1C449.264 169.1 449.014 158.516 448.514 143.35C447.847 127.516 447.43 113.766 447.264 102.1C447.264 90.2665 447.514 78.2665 448.014 66.0998C448.347 50.7665 448.514 40.2665 448.514 34.5998C448.514 26.9331 448.264 21.3498 447.764 17.8498C447.43 14.8498 447.264 12.9331 447.264 12.0998C447.264 9.0998 447.764 7.0998 448.764 6.0998C449.764 4.93313 451.097 4.3498 452.764 4.3498C453.597 4.3498 455.264 4.43313 457.764 4.59979C460.264 4.59979 463.847 4.01646 468.514 2.8498C470.347 2.51646 472.18 2.34979 474.014 2.34979C475.014 2.34979 476.43 2.43313 478.264 2.5998C480.097 2.76647 482.514 2.8498 485.514 2.8498C489.347 2.8498 492.514 4.3498 495.014 7.3498C497.68 10.3498 500.514 14.5998 503.514 20.0998L506.014 24.5998C508.014 28.2665 510.43 32.1831 513.264 36.3498L517.014 42.0998V28.3498Z" fill="#00202E"/>
</svg>
