<svg width="56" height="55" viewBox="0 0 56 55" fill="none" xmlns="http://www.w3.org/2000/svg">
<path d="M28.3313 7.1646C17.3818 6.82131 8.35857 15.758 7.36366 26.3486C6.25463 38.1614 16.4274 47.4939 27.6696 47.8445C27.6953 47.8455 27.7229 47.8445 27.7496 47.8418C27.7929 47.839 27.8435 47.8335 27.8619 47.8362C27.872 47.8381 27.8822 47.839 27.896 47.839C38.7866 47.4985 47.6092 39.6027 48.6363 28.6569C49.7453 16.845 39.5726 7.51434 28.3313 7.1646ZM12.8508 16.024C14.0031 14.5155 15.3763 13.1718 16.9179 12.0434C17.3275 11.7434 17.3772 11.8069 17.0136 12.1622C15.6883 13.4599 14.351 14.7695 12.9668 16.1243C12.6051 16.4796 12.5425 16.428 12.8508 16.024ZM12.8821 16.2532C14.4394 14.7419 15.3772 13.8455 14.4734 14.7751C14.2029 15.0355 13.6147 15.6034 12.7846 16.4069C12.4192 16.7603 12.1459 17.0125 12.1725 16.9701C12.1992 16.9269 12.5177 16.6057 12.8821 16.2532ZM9.36452 30.2933C9.32679 30.1119 9.2909 29.9288 9.26236 29.7429C9.255 29.695 9.24856 29.6472 9.24304 29.5993C9.23383 29.5183 9.45564 29.2174 9.74003 28.9247C10.0244 28.632 10.2803 28.725 10.3291 29.1318C10.3769 29.5386 10.2149 30.0853 9.95447 30.3549C9.69309 30.6218 9.42711 30.5961 9.36452 30.2933ZM9.83391 32.295C9.75844 32.0346 9.9057 31.6241 10.1542 31.3774C10.4036 31.1317 10.6484 31.163 10.7082 31.4483C10.7672 31.7336 10.6328 32.145 10.3999 32.3677C10.168 32.5896 9.90938 32.5555 9.83391 32.295ZM10.3042 33.7575C10.133 33.2853 10.1993 32.711 10.4294 32.4819C10.6595 32.2536 10.9393 32.4681 11.0746 32.9595C11.0782 32.9761 11.0828 32.9918 11.0874 33.0074C11.2237 33.497 11.1924 34.0492 10.9926 34.248C10.7948 34.4441 10.4754 34.2278 10.3042 33.7575ZM13.0865 38.0409C12.8785 38.2341 12.4726 38.0556 12.202 37.6248C11.9526 37.2282 11.716 36.8205 11.4924 36.4026C11.2531 35.9544 11.0957 35.5623 11.1206 35.5402C11.1353 35.5255 11.1491 35.5135 11.1638 35.4988C11.2586 35.4022 11.3525 35.3046 11.4464 35.2089C11.6019 35.0478 11.878 35.3037 12.1026 35.7602C12.3299 36.2204 12.5775 36.6419 12.8481 37.0064C13.1536 37.4122 13.2945 37.8467 13.0865 38.0409ZM13.5825 27.5294C17.2677 27.4042 20.9206 26.8916 24.5265 26.1489C25.0245 26.0458 25.8362 26.0025 26.3406 26.067C29.2949 26.4452 30.1205 26.8391 28.8145 27.2505C27.6843 27.6527 26.6139 28.0964 25.5334 28.6154C23.8455 29.4272 22.3085 30.5353 20.8479 31.695C19.1378 33.0543 17.6404 34.6594 16.2948 36.375C15.9819 36.7763 15.2953 37.207 14.9622 36.8232C13.8807 35.5752 12.5333 31.5063 12.3723 30.8676C12.2038 30.088 12.0916 29.302 12.0345 28.5078C11.8826 27.095 12.3962 27.569 13.5825 27.5294ZM46.3593 23.4366C46.4376 23.7467 46.2774 24.218 46.0114 24.4858C45.7454 24.7536 45.5292 24.6846 45.4887 24.3339C45.4491 23.9842 45.577 23.5185 45.8016 23.2902C46.0271 23.062 46.2811 23.1255 46.3593 23.4366ZM45.0809 20.9185C45.2613 20.7234 45.5512 20.9074 45.7096 21.3363C45.8669 21.7652 45.8126 22.2981 45.6055 22.5199C45.3985 22.7417 45.1426 22.5457 45.011 22.091C44.8785 21.6354 44.8987 21.1136 45.0809 20.9185ZM44.7947 20.2089C44.618 20.3847 44.3216 20.1426 44.0906 19.6898C43.0874 17.7257 41.533 16.3516 39.2946 17.9043C39.2284 17.9503 39.175 17.9945 39.1299 18.0377C37.3048 19.8122 35.2276 21.1854 32.9589 22.3321C31.8498 22.8926 31.1255 23.7044 31.3308 24.9635C31.5093 26.055 32.1241 27.1263 33.281 27.1972C35.7835 27.3527 38.2776 27.1373 40.7893 27.3702C42.0447 27.4871 43.1123 27.5267 43.9158 27.3205C44.4082 27.1944 44.8518 26.9588 44.9751 26.9754C45.0984 26.9919 45.4877 26.7112 45.8439 26.3486C45.9332 26.2566 46.0216 26.1664 46.1127 26.0752C46.4688 25.7126 46.8195 25.8258 46.8674 26.332C47.0846 28.5841 46.8628 30.7636 46.2802 32.8086C46.1412 33.2973 45.8586 33.8284 45.6755 34.0042C45.5651 34.1109 45.4555 34.2177 45.346 34.3244C44.8288 34.8279 44.3833 35.2604 44.0041 35.6286C43.6397 35.982 43.3525 36.2535 43.3645 36.2351C43.3764 36.2158 43.6811 35.913 44.0455 35.5596C44.2425 35.3681 44.456 35.1601 44.688 34.9356C45.0524 34.5821 45.0524 34.5812 44.6843 34.9337C44.4818 35.1288 44.2784 35.3267 44.0704 35.5264C43.705 35.8789 43.6314 35.8191 43.8845 35.3773C44.4836 34.3263 44.999 33.1731 45.138 32.1358C45.2052 31.6324 45.381 30.9881 45.6599 30.7019C45.9406 30.4175 46.0759 30.1027 45.947 30.0135C45.82 29.926 45.5448 30.0365 45.3506 30.2371C45.1564 30.4378 44.8518 30.2031 44.4864 29.8616C44.1219 29.5211 43.6756 29.3158 43.589 29.2809C43.5439 29.2625 43.4906 29.2468 43.4271 29.2339C41.6167 28.8768 39.8045 28.6872 37.961 28.6605C36.8474 28.6449 34.887 28.5262 34.1866 29.6702C34.021 29.9389 33.9243 30.2178 33.8746 30.5022C33.79 30.989 33.8387 31.3379 33.813 31.2679C33.7863 31.198 33.5405 31.3664 33.2626 31.6443C32.9846 31.9223 32.6119 31.7631 32.4103 31.2964C32.229 30.8722 32.0348 30.4552 31.8241 30.0521C31.6382 29.6959 31.1522 29.6628 30.7988 29.7815C27.3254 30.9587 24.1768 32.7764 21.3872 35.1518C19.6735 36.6115 16.6694 39.1609 17.7122 41.633C18.1862 42.7577 20.3242 43.4461 21.3237 43.8014C23.4322 44.5533 25.6383 45.0476 27.8905 44.9813C30.2779 44.9104 34.263 44.8073 35.0131 42.1668C35.1521 41.679 35.3914 40.9998 35.7052 40.6823C36.02 40.3629 36.3007 40.1908 36.3338 40.2967C36.3522 40.3592 36.3725 40.4246 36.3946 40.4863C36.8897 41.8088 37.9822 41.5925 39.082 40.8894C39.5109 40.616 39.8772 40.4191 39.9518 40.4945C40.0272 40.57 40.3926 40.3233 40.7525 39.9644C42.0566 38.6621 43.3626 37.3524 44.6686 36.0446C45.0276 35.6838 45.1481 35.7685 44.9134 36.2185C41.7759 42.2248 35.3638 46.4382 28.2687 46.7208C26.4087 46.6591 24.6333 46.3471 22.9582 45.8345C22.4723 45.6854 22.106 45.5234 22.1327 45.4948C22.1585 45.4672 21.8041 45.274 21.3541 45.0384C21.2896 45.0043 21.2252 44.9702 21.1608 44.9371C20.7126 44.696 20.3039 44.5368 20.2349 44.6049C20.1659 44.672 19.7379 44.5478 19.2924 44.3039C19.0053 44.1465 18.7246 43.9818 18.4476 43.8106C18.015 43.5437 17.7656 43.2188 17.876 43.1084C17.9865 42.9979 17.8871 42.7577 17.6643 42.5607C17.4407 42.3647 17.1508 42.304 17.0136 42.4291C16.8756 42.5561 16.4357 42.4089 16.0473 42.0794C15.7159 41.7996 15.3938 41.5097 15.0818 41.2078C14.7164 40.8544 14.5784 40.4089 14.7532 40.2304C14.9272 40.0537 15.0229 39.8512 14.9686 39.7767C14.9143 39.7021 14.7183 39.7831 14.5314 39.9552C14.3446 40.1273 13.9995 40.0537 13.7657 39.7849C13.5328 39.5162 13.52 39.1361 13.7252 38.9502C13.9304 38.7624 13.9783 38.4357 13.843 38.2139C13.7077 37.9921 13.9166 38.0961 14.3961 38.2645C15.1968 38.5443 16.1218 38.3584 17.183 37.4804C17.2299 37.4408 17.2677 37.404 17.298 37.369C17.3551 37.3027 17.6257 36.9014 17.9414 36.5048C20.5359 33.2421 23.8087 30.5077 27.6346 28.8511C28.1003 28.6486 28.2485 28.736 27.9558 29.0241C27.6631 29.3112 27.5251 29.4843 27.6502 29.4152C27.7754 29.3453 28.0948 29.0848 28.3617 28.8317C28.6295 28.5786 29.0234 28.3062 29.2434 28.2215C29.3759 28.17 29.5084 28.1212 29.6447 28.0779C29.906 27.9951 30.3708 27.8101 30.4021 27.4751C30.4113 27.373 30.4159 27.2754 30.4168 27.1815C30.4187 27.0186 30.6589 26.6523 30.9626 26.3642C31.2673 26.0752 31.4964 25.8139 31.4743 25.7817C31.4522 25.7494 31.4108 25.7448 31.3851 25.7706C31.4099 25.7448 31.4219 25.7126 31.4072 25.6997C31.3933 25.6869 31.1605 25.893 30.8881 26.1599C30.6156 26.4268 30.3754 26.2133 30.1407 25.7632C29.1293 23.8406 25.5776 24.8456 23.7608 25.2396C20.7641 25.8893 17.6818 26.194 14.6253 26.379C13.6608 26.4379 12.5793 26.3366 11.6028 26.5446C11.1058 26.6514 10.7175 26.6081 10.7239 26.321C10.7303 26.0338 10.4598 26.0918 10.0981 26.4489C9.96828 26.5759 9.83943 26.7039 9.71058 26.8318C9.34888 27.1889 9.04148 27.0665 9.05528 26.5584C9.06633 26.1249 9.09394 25.6951 9.13719 25.269C9.18781 24.7628 9.55228 24.0725 9.92134 23.7228C10.0741 23.5774 10.2269 23.4329 10.3797 23.2875C10.7478 22.9368 10.9972 23.0868 11.2089 23.5489C11.4381 24.0495 11.924 24.4158 12.7653 24.5649C12.7919 24.5695 12.8214 24.5723 12.8508 24.5723C12.8987 24.5723 12.9935 24.5787 13.0644 24.5861C13.103 24.5898 13.1444 24.5916 13.1923 24.5898C17.321 24.4204 22.4971 24.3523 26.2853 22.5862C26.7842 22.3533 27.0548 21.9971 27.156 21.5563C27.2701 21.0602 27.3916 20.4307 27.676 20.1721C27.9595 19.9125 28.1804 19.6879 28.1693 19.6695C28.1592 19.6521 27.9291 19.8628 27.6558 20.1389C27.3824 20.416 27.1164 20.357 27.0115 20.0193C26.9057 19.6815 26.9563 19.2462 27.1652 19.0326C27.3741 18.8182 27.4855 18.5495 27.4128 18.4317C27.3401 18.3138 27.1238 18.3847 26.9259 18.5863C26.728 18.7878 26.3811 18.578 26.1261 18.139C25.9752 17.8794 25.8141 17.619 25.6466 17.3613C25.3705 16.9351 25.2555 16.4777 25.4073 16.3277C25.4994 16.2366 25.5914 16.1464 25.6825 16.0562C25.7028 16.0341 25.723 16.0111 25.7433 15.9881C25.7764 15.9504 25.6374 15.6678 25.4303 15.3567C25.2223 15.0456 24.8938 14.9564 24.6977 15.1579C24.5017 15.3586 24.2173 15.3549 24.0599 15.1506C23.9035 14.9453 23.9421 14.6085 24.1483 14.3968C24.3544 14.1851 24.5127 14.001 24.5017 13.9854C24.4906 13.9697 24.3167 14.1317 24.1105 14.3462C23.9053 14.5597 23.7304 14.7244 23.7212 14.7125C23.712 14.7005 23.805 14.5938 23.9292 14.4741C24.0121 14.3931 24.0884 14.3204 24.1547 14.2578C24.2118 14.1998 24.2652 14.1474 24.313 14.0986C24.4004 14.0112 24.4391 13.8961 24.4004 13.8391C24.3765 13.8032 24.3526 13.7691 24.3296 13.7369C24.2467 13.6182 24.1501 13.5105 24.0433 13.4148C23.8657 13.2565 23.5408 13.3025 23.3503 13.4774C23.1607 13.6522 22.9362 13.7019 22.8506 13.5869C22.7917 13.5086 22.7401 13.4369 22.6978 13.3752C20.4622 10.1291 16.0979 14.5533 14.5811 16.1952C13.8108 17.029 12.1725 19.1265 11.428 21.0243C11.2421 21.4974 10.8601 22.1941 10.5021 22.5549C10.3383 22.7205 10.1744 22.8862 10.0106 23.0509C9.6526 23.4126 9.43907 23.2994 9.56148 22.8061C9.73083 22.1251 9.93975 21.4569 10.1864 20.8043C10.3659 20.3285 10.8215 19.6585 11.1776 19.2959C11.9977 18.4602 12.8168 17.6245 13.6322 16.798C13.9893 16.4354 14.5139 15.8049 14.8259 15.4037C15.8098 14.1373 16.9446 12.9942 18.2027 12.0002C18.6013 11.6845 19.2271 11.1544 19.586 10.7945C19.6265 10.754 19.667 10.7135 19.7085 10.6721C20.0674 10.3122 20.731 9.84653 21.2022 9.6551C21.9081 9.36887 22.6324 9.12313 23.3724 8.92065C23.863 8.78628 24.256 8.70713 24.2458 8.71817C24.2348 8.72829 24.3277 8.70437 24.4548 8.66847C24.5311 8.6473 24.6075 8.62613 24.6839 8.60405C25.3282 8.4752 25.9825 8.37764 26.6443 8.31505C34.5355 7.57324 41.3424 12.4097 44.7156 19.0612C44.9484 19.5149 44.9723 20.0331 44.7947 20.2089ZM43.4142 26.494C41.0433 26.5106 38.6577 26.0108 36.2574 26.0532C34.9745 26.0752 33.963 26.4167 33.3878 25.0987C32.645 23.4007 35.096 22.472 36.2786 21.7716C37.5368 21.0252 38.7139 20.1242 39.8036 19.1422C40.1809 18.8016 40.9255 18.2936 41.3323 18.5982C42.954 19.8186 44.2664 26.4885 43.4142 26.494ZM34.3118 34.8997C34.5787 34.6309 34.8097 34.4542 34.8272 34.5048C34.8392 34.5352 34.8484 34.5665 34.8576 34.5987C34.9008 34.746 34.9404 34.8941 34.9781 35.0442C35.0407 35.2908 34.8714 35.7105 34.6008 35.9829C34.3302 36.2544 34.0504 36.2323 33.9731 35.9305C33.8967 35.6295 34.0449 35.1684 34.3118 34.8997ZM33.5258 34.3539C33.3942 33.9259 33.478 33.3719 33.7209 33.1096C33.9658 32.8491 34.2768 32.9752 34.4296 33.3838C34.5824 33.7943 34.4913 34.353 34.2299 34.6291C33.9667 34.9052 33.6565 34.7809 33.5258 34.3539ZM34.9643 37.4932C35.2331 37.2162 35.5396 37.3966 35.6583 37.8899C35.731 38.1927 35.8074 38.4937 35.8884 38.7919C36.02 39.2824 35.9059 39.9202 35.6141 40.2193C35.3224 40.5185 34.9993 40.3583 34.8916 39.8613C34.8217 39.5401 34.7517 39.2162 34.679 38.8903C34.5695 38.3961 34.6956 37.7703 34.9643 37.4932ZM35.9252 31.8054C35.1006 29.2174 39.1888 29.707 41.3949 30.1018C41.8956 30.1911 42.7156 30.4239 43.0203 30.8317C44.1679 32.3705 42.0566 35.5448 41.1961 36.8821C40.6209 37.7767 39.9085 38.5664 39.1713 39.3266C38.0255 40.5093 37.8524 38.8673 37.6564 38.0114C37.176 35.9176 36.5768 33.8532 35.9252 31.8054ZM33.1494 42.3417C31.987 44.7328 26.1795 43.783 24.3498 43.3753C23.0733 43.09 21.8768 42.5377 20.7144 41.9561C17.9598 40.5774 19.5851 39.022 20.5193 37.8918C22.8607 35.057 26.0497 32.8473 29.4587 31.4225C29.9291 31.2265 30.4942 31.4548 30.6957 31.9214C31.8544 34.6263 32.5429 37.6884 33.1586 40.5516C33.2663 41.0486 33.3712 41.8843 33.1494 42.3417ZM16.6105 15.954C17.4287 15.0687 19.5824 12.6739 21.0586 14.106C21.7231 14.7502 22.221 15.8169 22.7282 16.5854C23.4405 17.665 24.1207 18.7657 24.7962 19.8693C26.4593 22.5898 21.4332 22.681 20.2533 22.8604C18.3923 23.1439 16.513 23.3188 14.6327 23.4237C14.1246 23.4522 13.219 23.3924 13.0045 22.9313C12.225 21.2489 16.0169 16.5983 16.6105 15.954Z" fill="#00202E"/>
<path d="M40.2132 13.7425C40.1202 13.6772 40.0273 13.6155 39.9315 13.5548C39.7751 13.4535 39.5045 13.5041 39.3296 13.668C39.1538 13.8309 38.8832 13.7158 38.6651 13.4526C38.4488 13.1894 38.3062 12.9436 38.3945 12.8626C38.4838 12.7816 38.412 12.6362 38.2344 12.5414C38.0595 12.4457 37.8617 12.419 37.7991 12.4752C37.7365 12.5313 37.407 12.3813 37.0425 12.177C36.6781 11.9727 36.3872 11.8143 36.4121 11.7895C36.436 11.7646 36.3688 11.7113 36.2593 11.6708C36.1498 11.6303 36.0449 11.6156 36.0246 11.6349C36.0044 11.6542 35.7301 11.5594 35.4052 11.4361C35.0803 11.3128 34.7784 11.206 34.7343 11.1913C34.7076 11.1821 34.6809 11.1747 34.6533 11.1673C33.2497 10.7154 31.8581 10.4329 30.9994 10.2856C29.341 10.0003 22.6785 9.33766 24.2237 12.8359C24.2283 12.847 24.2366 12.8544 24.244 12.8617C24.2578 12.8746 24.2725 12.9022 24.2771 12.9243C24.279 12.9372 24.2826 12.9492 24.2919 12.963C25.6402 14.9022 26.9158 16.8846 28.1288 18.9103C28.89 20.1804 29.7284 21.1689 31.3602 20.9959C31.7182 20.9581 32.079 20.8689 32.4389 20.7446C32.9184 20.578 33.3905 20.4133 33.5203 20.4308C33.6519 20.4482 33.9648 20.2531 34.2216 20.0138C34.4766 19.7755 35.0315 19.3585 35.4512 19.0714C35.7329 18.879 36.0034 18.6904 36.2593 18.5155C37.1327 17.92 38.9412 16.8128 39.2164 15.702C39.233 15.6366 39.2404 15.574 39.2477 15.5114C39.2578 15.4056 39.2762 15.3071 39.2928 15.2924C39.3029 15.2832 39.3121 15.2731 39.3223 15.2657C39.3223 15.2657 39.6021 15.0062 39.9463 14.6859C40.2914 14.3656 40.5031 14.0122 40.4064 13.9109C40.3485 13.8493 40.285 13.7931 40.2132 13.7425ZM36.5014 16.8009C35.9151 17.331 35.2727 17.7912 34.6137 18.2247C34.1894 18.5044 33.5406 19.018 33.0859 19.2453C32.4674 19.5546 31.8075 19.6034 31.1053 19.3898C30.6203 19.2426 30.0588 18.6646 29.8002 18.2274C29.629 17.9384 29.4569 17.6504 29.2839 17.3641C28.4095 15.9044 27.4763 14.4788 26.5154 13.0743C26.2283 12.6546 25.7884 11.7831 26.2209 11.5162C27.4064 10.7835 31.7707 11.7196 32.2962 11.8631C34.2842 12.4061 39.3112 14.2616 36.5014 16.8009Z" fill="#00202E"/>
<path d="M28.1289 21.5416C27.9972 21.6622 27.8573 21.7929 27.6687 21.9723C27.2996 22.3221 27.1717 22.5743 27.376 22.5319C27.4984 22.5062 27.6208 22.4804 27.7451 22.4519C27.804 22.438 27.861 22.4215 27.9153 22.4031C28.0074 22.3718 28.2172 22.2089 28.3866 22.0497C28.5568 21.8914 28.7943 21.5867 28.8228 21.3483C28.8523 21.1081 28.5025 21.1965 28.1289 21.5416Z" fill="#00202E"/>
<path d="M18.6906 36.1127C18.3537 36.4256 18.0169 36.7376 17.6791 37.0496C17.3064 37.3948 17.0395 37.704 17.0855 37.7344C17.1315 37.7648 17.461 37.4933 17.8172 37.1325C18.3694 36.5738 18.9216 36.0133 19.4757 35.4519C19.8328 35.0902 19.819 35.0764 19.4444 35.4206C19.1996 35.6461 18.9483 35.8771 18.6906 36.1127Z" fill="#00202E"/>
</svg>
