<svg width="56" height="55" viewBox="0 0 56 55" fill="none" xmlns="http://www.w3.org/2000/svg">
<path d="M47.4261 33.4829C47.4261 27.1434 47.4261 20.8048 47.4261 14.4644C47.4261 9.60686 44.259 8.2157 39.9902 8.2157C31.4687 8.2157 22.9444 8.2157 14.422 8.2157C14.3997 8.2157 14.3766 8.21659 14.3525 8.22015C14.316 8.22371 14.267 8.23084 14.2456 8.22995C14.2341 8.22995 14.2225 8.22995 14.2065 8.23173C8.67653 8.87298 8.4325 13.034 8.4325 17.529C8.4325 24.2016 8.4325 30.8742 8.4325 37.5469C8.4325 41.6634 8.57411 46.3971 14.0595 46.3971C19.8789 46.3971 25.6974 46.3971 31.5168 46.3971C34.8299 46.3971 41.3271 47.6395 44.406 45.6765C48.5634 43.026 47.4261 37.7775 47.4261 33.4829ZM45.7348 15.7032C45.7206 16.1388 45.7054 16.5502 45.7054 16.9145C45.7054 17.0205 45.7054 17.1256 45.7054 17.2307C45.7054 17.4052 45.4186 17.8238 45.0642 18.1649C44.4612 18.7465 43.8582 19.3281 43.258 19.9088C42.9053 20.2508 42.679 20.5474 42.7574 20.5625C42.8349 20.5785 43.1849 20.3069 43.5385 19.964C44.0123 19.5036 44.5244 19.0039 45.0695 18.4749C45.4222 18.1311 45.7063 18.1997 45.7063 18.6272C45.7063 19.0538 45.4284 19.6692 45.0838 20.0023C44.7409 20.3345 44.5823 20.6053 44.7293 20.6053C44.8762 20.6053 45.1559 20.4645 45.3518 20.2909C45.5487 20.1181 45.7063 20.3764 45.7063 20.868C45.7063 22.6493 45.7063 24.4314 45.7063 26.2127C45.7063 27.4756 45.7339 28.7528 45.7678 30.0371C45.7811 30.5287 45.7125 31.2341 45.5896 31.6055C45.4667 31.9768 45.4489 32.1612 45.5789 32.0285C45.709 31.8949 45.8256 32.1853 45.8381 32.6769C45.8506 33.1578 45.8586 33.6379 45.8675 34.1188C45.8755 34.6104 45.6012 35.2953 45.2565 35.6471C44.7934 36.1218 44.3312 36.5966 43.8671 37.0721C43.5234 37.4248 43.2357 37.4008 43.2241 37.0178C43.217 36.7791 43.2116 36.5485 43.2116 36.3249C43.2116 33.6156 44.8504 25.0468 41.401 24.0333C41.3796 24.0271 41.3529 24.0226 41.3262 24.0199C41.2843 24.0164 41.2095 24.0039 41.1578 23.9968C41.1071 23.9897 41.0572 23.9745 41.0465 23.9576C41.0358 23.9407 41.0153 23.9389 40.9993 23.954C40.9851 23.9692 40.8898 23.9817 40.7882 23.9986C40.7321 24.0075 40.6707 24.0208 40.6065 24.0387C37.9658 24.7761 38.7665 26.3801 38.6347 28.8979C38.5697 30.143 38.2686 31.2795 37.7957 32.3019C37.5891 32.7481 37.1019 33.3716 36.7528 33.7198C36.5951 33.8766 36.4375 34.0351 36.2808 34.191C35.9325 34.5383 35.7731 34.8037 35.9192 34.777C36.0652 34.7512 35.9138 35.0219 35.5495 35.3523C33.8716 36.8726 31.6726 37.8292 29.3597 38.1133C28.8716 38.1721 28.5608 38.099 28.6703 37.9895C28.7799 37.88 28.7175 37.7098 28.534 37.6012C28.3515 37.4952 28.0166 37.5771 27.7806 37.7944C27.5446 38.0118 26.955 38.1721 26.466 38.1124C25.6805 38.018 24.9012 37.8434 24.1441 37.5754C24.0346 37.5371 23.9286 37.4943 23.8235 37.4489C23.6471 37.3759 23.7807 37.0347 24.1192 36.6901C24.4576 36.3472 24.4389 36.3383 24.0764 36.6714V36.6749C23.7139 37.0071 23.1537 37.1612 22.8385 36.9929C22.5232 36.8254 22.5722 36.4015 22.9346 36.0693C23.3434 35.6952 23.7531 35.3185 24.161 34.9435C24.5235 34.6104 25.1906 34.4822 25.6653 34.6122C26.3084 34.7877 26.9656 34.8972 27.6211 34.932C29.8059 35.046 31.8632 34.2319 33.4352 32.8604C33.8057 32.5371 33.8199 32.5513 33.4592 32.8853C33.2294 33.0973 32.9863 33.2959 32.7316 33.4802C32.3317 33.767 31.8962 34.0298 31.7946 34.1224C31.6931 34.215 31.7305 34.3388 31.8801 34.394C32.0298 34.4492 32.4314 34.2061 32.7761 33.8561C34.349 32.2529 35.9218 30.6471 37.492 29.0387C37.8367 28.686 37.818 28.6673 37.4528 28.9968C36.7635 29.6193 36.0786 30.2374 35.4053 30.8457C35.041 31.1762 34.9849 31.1245 35.236 30.7015C35.7392 29.8438 36.0973 28.897 36.2647 27.8978C36.295 27.7196 36.3164 27.5451 36.3288 27.3723C36.352 27.081 36.6406 26.5689 36.9968 26.2296C37.9373 25.3345 38.8484 24.4644 39.7239 23.6281C40.0793 23.2887 40.3367 22.9761 40.2948 22.9334C40.253 22.8906 39.935 23.1338 39.5814 23.4767C38.7095 24.3281 37.8438 25.1751 36.9826 26.0203C36.6308 26.3641 36.629 26.365 36.979 26.0194C37.8456 25.1662 38.7496 24.2756 39.5725 23.466C39.9225 23.1213 40.1995 22.8336 40.1906 22.8247C40.1808 22.8158 39.8905 23.0866 39.5396 23.4303C38.6792 24.2702 37.8269 25.103 36.979 25.9321C36.6272 26.2759 36.336 26.1548 36.2505 25.6703C36.2122 25.4458 36.1596 25.2259 36.0973 25.0112C35.9601 24.5392 36.0786 23.9051 36.4384 23.5702C36.9514 23.0928 37.4626 22.6163 37.9756 22.1398C38.3354 21.8041 38.3978 21.3872 38.1021 21.2323C37.8046 21.0782 37.2604 21.2474 36.8988 21.5814C36.5533 21.902 36.2095 22.2227 35.863 22.5424C35.5032 22.8773 35.0544 22.9227 34.837 22.6653C34.6197 22.4079 34.7221 21.9466 35.0837 21.6135C35.2075 21.5004 35.3358 21.3819 35.4703 21.2599C35.8319 20.9268 36.5212 20.7175 37.0111 20.7398C38.2624 20.7941 39.5805 20.6391 40.3153 20.6391C42.2435 20.6391 42.9311 19.5294 43.1538 18.1266C43.2321 17.6412 43.2562 17.2244 43.2776 17.2048C43.29 17.1933 43.3016 17.1817 43.315 17.1701L44.7008 15.8823C44.878 15.7032 45.0535 15.526 45.2298 15.3488C45.5193 15.054 45.7499 15.2116 45.7348 15.7032ZM45.0757 18.3796C44.5574 18.8935 44.0604 19.3753 43.5724 19.8411C43.217 20.1804 43.2116 20.1769 43.5652 19.834C44.1219 19.296 44.6188 18.8124 45.0686 18.3733C45.4204 18.0296 45.4249 18.034 45.0757 18.3796ZM41.1757 41.2011C40.0508 41.2011 38.9277 41.2011 37.8028 41.2011C33.1653 41.2011 28.5269 41.2011 23.8894 41.2011C22.5855 41.2011 14.2964 42.2966 14.2964 39.8759C14.2964 35.9722 14.2964 32.0668 14.2964 28.1641C14.2964 27.5281 14.2964 26.8931 14.2964 26.2572C14.2964 24.5018 15.5718 28.8872 15.5771 29.011C15.7348 32.0374 17.6051 34.6942 19.7925 36.6197C23.3737 39.7725 28.5527 39.7984 32.8037 38.2914C35.0757 37.4863 36.9247 35.7763 38.3675 33.9068C39.0613 33.0064 39.4906 31.9011 39.886 30.8529C40.041 30.445 40.2895 27.7579 40.5228 26.1147C40.5923 25.6275 40.9628 25.518 41.1783 25.9597C42.492 28.6343 41.4901 35.0575 41.4901 36.788C41.4909 37.0232 41.7189 41.2011 41.1757 41.2011ZM23.1413 33.5372C23.4343 33.7207 23.3924 34.1206 23.0317 34.4546C22.6897 34.7725 22.3477 35.0896 22.0057 35.4076C21.645 35.7415 21.1418 35.8457 20.8942 35.6231C20.6475 35.4004 20.7508 34.9346 21.1106 34.5989C21.3965 34.3326 21.6833 34.0645 21.971 33.7964C22.3299 33.4606 22.8483 33.3538 23.1413 33.5372ZM26.735 20.5224C27.2204 20.4423 28.0201 20.4423 28.5055 20.5242C35.9361 21.7791 36.9184 33.5746 28.3078 34.0244C20.2574 34.4448 18.9063 21.8174 26.735 20.5224ZM41.4348 19.0066C41.3039 20.1404 39.4968 19.7289 38.7451 19.7289C37.7957 19.7289 36.6664 19.9551 35.9379 19.2266C35.3999 18.6886 35.627 17.236 35.627 16.5663C35.627 16.1388 35.4534 14.7191 35.7197 13.881C35.8675 13.4125 36.6851 13.2389 37.1758 13.2032C38.5715 13.0999 40.3554 12.9547 41.165 13.7661C41.7029 14.3058 41.4767 15.7567 41.4767 16.4273C41.4767 17.2832 41.5328 18.1578 41.4348 19.0066ZM10.7063 12.0098C11.2059 10.7487 11.9434 9.7939 13.0121 9.35392C13.4672 9.16689 13.9161 9.12503 13.9731 9.12503C14.0301 9.12503 13.7977 9.40914 13.453 9.76005C12.6639 10.5643 11.857 11.3863 11.0429 12.2164C10.6983 12.5682 10.5246 12.4676 10.7063 12.0098ZM9.86997 21.7524C9.86285 21.625 9.85483 21.4977 9.84771 21.3694C9.81921 20.8787 10.0837 20.2027 10.4382 19.8625C12.1215 18.2451 13.7335 16.6972 15.2939 15.2018C15.6493 14.8616 15.9378 14.5686 15.9378 14.5499C15.9378 14.5303 15.6502 14.7903 15.2948 15.1314C13.7629 16.6019 12.1402 18.1605 10.4355 19.7939C10.0802 20.1341 9.78269 20.2374 9.76933 20.0237C9.76132 19.8954 9.7533 19.7672 9.74618 19.638C9.73104 18.5221 9.75419 17.391 9.84058 16.3035C9.87888 15.8128 10.2057 15.1314 10.5486 14.7788C11.9184 13.3778 13.2597 12.0062 14.5244 10.7139C14.8682 10.3621 14.8718 10.3639 14.5298 10.7175C14.2234 11.0345 13.9134 11.3561 13.5999 11.6811C13.2588 12.0356 13.2615 12.0365 13.6053 11.6856C14.2358 11.0417 14.8637 10.4022 15.4925 9.76094C15.8372 9.41003 16.515 9.12503 17.0066 9.12503C17.5463 9.12503 18.0869 9.12503 18.6276 9.12503C19.1192 9.12503 19.4728 9.16956 19.4175 9.22567C19.3623 9.28178 19.4336 9.28802 19.5779 9.24527C19.7221 9.20252 19.8539 9.16778 19.87 9.15264C19.886 9.1375 20.2984 9.12503 20.79 9.12503C23.2027 9.12503 25.6146 9.12503 28.0273 9.12503C31.2166 9.12503 34.406 9.12503 37.5944 9.12503C39.9092 9.12503 42.1286 8.82489 44.0328 10.2134C44.4291 10.5028 45 11.0764 45.2191 11.5164C45.3741 11.8254 45.4836 12.1665 45.5638 12.529C45.668 13.0091 45.4035 13.6815 45.0437 14.0164C44.6562 14.3762 44.2697 14.7369 43.8832 15.0967C43.5216 15.4316 43.2188 15.4049 43.2063 15.037C43.1992 14.8064 43.1938 14.5828 43.1938 14.3709C43.1938 14.3299 43.1903 14.2925 43.1849 14.256C43.176 14.1927 43.3898 13.9371 43.6632 13.6842C43.9357 13.4321 43.9464 13.2273 43.689 13.2273C43.4307 13.2273 43.1671 13.2763 43.1012 13.3368C43.0335 13.3974 42.7859 13.0732 42.3709 12.8069C40.9601 11.8993 38.0985 12.3527 36.7857 12.3527C36.7644 12.3527 36.7403 12.3545 36.7172 12.3571C36.6789 12.3607 36.6299 12.3678 36.6094 12.3669C36.5969 12.3669 36.5862 12.3669 36.5693 12.3678C33.1618 12.7642 33.9045 16.1735 33.9045 18.7047C33.9045 19.3432 34.1602 19.7877 34.5725 20.0949C34.9671 20.3888 35.1764 20.6667 34.9377 20.8903C34.797 21.0212 34.6545 21.1557 34.5066 21.2946C34.414 21.3846 34.3303 21.4683 34.2492 21.5476C34.1067 21.6874 33.7816 21.6144 33.5082 21.4042C33.233 21.1949 33.1422 20.9125 33.3185 20.7513C33.4957 20.5892 33.5839 20.4654 33.5162 20.4752C33.4485 20.485 33.2864 20.6044 33.1529 20.7398C33.0202 20.8751 32.5766 20.7674 32.1375 20.5456C31.3235 20.135 30.4436 19.8402 29.5485 19.6737C29.0649 19.5828 28.5875 19.5232 28.4877 19.516C28.388 19.5089 28.2651 19.5134 28.2134 19.5187C28.1618 19.524 27.7218 19.5552 27.2346 19.6256C23.4592 20.1706 20.3385 22.5424 19.6651 26.5511C19.4416 27.8808 19.6259 29.093 20.0935 30.1626C20.2904 30.6142 20.4097 31.047 20.2921 31.1637C20.1746 31.2822 20.0793 31.6527 20.0793 31.9938C20.0793 32.3367 20.1692 32.521 20.2797 32.4061C20.3465 32.3376 20.4133 32.269 20.4801 32.2004C20.5673 32.1104 20.6537 32.0205 20.7401 31.9314C20.8835 31.7827 21.2451 31.9804 21.5942 32.326C21.6699 32.4026 21.7483 32.4774 21.8285 32.5486C22.191 32.8808 22.2346 33.3974 21.8873 33.7456C21.6236 34.0102 21.352 34.2818 21.0741 34.5597C20.7268 34.9088 20.1657 34.907 19.8566 34.5232C17.9578 32.1683 17.1242 28.9843 17.3548 25.8929C17.4029 25.2463 17.1544 24.6995 16.735 24.353C16.3555 24.0395 15.9352 23.9238 15.9352 23.8472C15.9352 23.7697 15.8773 23.7661 15.8051 23.8383C15.733 23.9113 15.5308 23.9612 15.3545 23.9781C15.2512 23.9879 15.147 24.0066 15.0392 24.0369C13.7015 24.4136 13.0175 25.2561 12.6844 26.3187C12.5374 26.788 12.2097 27.4703 11.8632 27.8194C11.5212 28.1658 11.1783 28.5096 10.8363 28.8561C10.4899 29.2061 10.2218 29.3361 10.2325 29.1464C10.2414 28.9879 10.2458 28.8694 10.2458 28.8017C10.2458 28.6904 10.2334 28.3912 10.212 27.9494C10.1897 27.4801 10.448 26.813 10.7909 26.4603C12.3059 24.9043 13.8119 23.3644 15.3099 21.8379C15.6546 21.487 15.9343 20.9134 15.9343 20.5572C15.9343 20.2009 15.6466 20.1876 15.2939 20.5305C13.9811 21.8014 12.4252 23.3092 10.725 24.9587C10.3723 25.3007 10.065 25.1956 10.0383 24.7227C10.0116 24.2497 10.2752 23.5889 10.6279 23.246C12.1411 21.7738 13.697 20.2588 15.2966 18.702C15.6493 18.3591 15.9343 17.7642 15.9343 17.3732C15.9343 16.9831 15.6511 16.9474 15.3019 17.2939C13.713 18.8721 12.1259 20.4458 10.5495 22.0107C10.2031 22.3616 9.89758 22.2431 9.86997 21.7524ZM11.8418 34.9177C11.4856 35.2855 11.1284 35.6525 10.7722 36.0203C10.4302 36.373 10.1523 36.3035 10.1523 35.8636C10.1523 35.4236 10.4293 34.7797 10.7704 34.427C11.1676 34.0164 11.5622 33.6085 11.9549 33.2032C12.2969 32.8506 12.5677 32.9476 12.5321 33.4215C12.4973 33.8944 12.1838 34.565 11.8418 34.9177ZM12.3326 36.0835C12.3139 36.4389 12.0244 37.0098 11.678 37.3589C11.3475 37.692 11.0171 38.0242 10.6858 38.3573C10.3393 38.7065 10.0757 38.6931 10.0989 38.3279C10.122 37.9637 10.4195 37.3839 10.7668 37.0365C11.1988 36.6046 11.6308 36.1726 12.0636 35.7424C12.1153 35.6917 12.166 35.6418 12.2177 35.591C12.3032 35.5073 12.3504 35.7282 12.3326 36.0835ZM10.1532 31.9279C10.1532 31.3962 10.1532 30.8644 10.1532 30.3336C10.1603 30.2366 10.1683 30.1404 10.1746 30.0477C10.1861 29.8901 10.4881 29.492 10.8479 29.1553C11.1614 28.8614 11.4749 28.5666 11.7875 28.2709C12.1455 27.9334 12.3994 28.059 12.3967 28.5497C12.394 28.9068 12.4056 29.2702 12.4234 29.6327C12.4475 30.1243 12.1936 30.8012 11.8436 31.1477C11.4909 31.4959 11.1391 31.8433 10.7855 32.1933C10.4355 32.5388 10.1532 32.4204 10.1532 31.9279ZM10.0463 40.7335C10.0294 40.4913 10.0232 40.2419 10.0241 39.9899C10.0258 39.4982 10.3358 38.8178 10.684 38.4704C11.0127 38.1436 11.3413 37.8176 11.6708 37.4899C12.02 37.1434 12.2898 37.2619 12.2996 37.7535C12.3041 37.9512 12.3112 38.1471 12.3228 38.3404C12.3522 38.832 12.1357 39.5196 11.8009 39.8794C11.4615 40.2419 11.1222 40.6053 10.782 40.9678C10.4444 41.3249 10.0811 41.2243 10.0463 40.7335ZM11.5987 43.9184C11.2647 43.6316 10.9752 43.3057 10.7357 42.9334C10.4694 42.5201 10.6217 41.8691 10.9788 41.5315C11.2905 41.2376 11.604 40.9437 11.9184 40.648C12.2765 40.3105 12.6514 40.4325 12.8669 40.8743C13.2339 41.6268 13.8164 42.1122 14.7293 42.1122C14.7435 42.1122 14.7578 42.1122 14.772 42.1122C14.7952 42.1122 14.5235 42.3848 14.1637 42.7205C13.7656 43.091 13.3675 43.4615 12.9703 43.8338C12.6104 44.1669 11.971 44.2399 11.5987 43.9184ZM45.8657 37.8808C45.8541 38.3725 45.5513 39.0476 45.1977 39.3887C44.5022 40.0593 43.7897 40.746 43.054 41.4576C42.7013 41.7987 42.7013 42.0748 43.0549 42.0748C43.4085 42.0748 43.9785 41.7934 44.3276 41.4451C44.601 41.1708 44.8753 40.8974 45.1505 40.6231C45.4988 40.2749 45.7606 40.3425 45.7259 40.7727C45.6912 41.2029 45.538 41.6687 45.3928 41.813C45.2467 41.9573 45.2369 42.0748 45.3688 42.0748C45.5006 42.0748 45.6021 42.1398 45.595 42.2209C45.5914 42.2699 45.587 42.3189 45.5816 42.3678C44.9778 47.5718 30.7134 45.4851 27.8322 45.4851C25.1416 45.4851 20.2627 46.1958 16.2834 45.6703C15.7962 45.6062 15.684 45.2455 16.0287 44.8955C16.0527 44.8723 16.0768 44.8465 16.1008 44.8224C16.4464 44.4724 16.6593 44.0876 16.5898 43.9549C16.5203 43.8231 16.1739 43.9843 15.8096 44.3148C15.6439 44.4662 15.4774 44.6167 15.3099 44.7672C14.9448 45.0958 14.3231 45.2864 13.9304 45.16C13.5385 45.0326 13.5278 44.6345 13.893 44.3059C14.3819 43.8659 14.8709 43.4259 15.3589 42.9859C15.7241 42.6564 16.0091 42.3269 16.002 42.2494C15.9957 42.1728 16.3885 42.1096 16.8801 42.1096C24.7106 42.1096 32.541 42.1096 40.3705 42.1096C42.5152 42.1096 43.0914 40.8003 43.2197 39.2373C43.2597 38.7465 43.3203 38.2798 43.404 38.1979L43.5572 38.0492C44.1245 37.4783 44.6901 36.9083 45.2565 36.3374C45.603 35.9882 45.8862 36.104 45.8826 36.5965C45.8818 37.0258 45.8755 37.4533 45.8657 37.8808Z" fill="#00202E"/>
<path d="M15.5344 13.1479C14.8192 13.8756 14.0826 14.6281 13.3229 15.4066C13.2561 15.4742 13.1902 15.5393 13.1243 15.6061C13.0148 15.7156 13.2125 15.5277 13.5679 15.1866C14.194 14.5863 14.8147 13.9905 15.4328 13.3982C15.7882 13.058 16.091 12.7213 16.1159 12.6474C16.14 12.5726 15.879 12.797 15.5344 13.1479Z" fill="#00202E"/>
<path d="M10.8497 24.7744C9.82729 25.8235 12.607 23.1107 15.3002 20.486C15.6529 20.1422 15.6485 20.1404 15.294 20.4815C13.8912 21.8264 12.4235 23.2523 10.8497 24.7744Z" fill="#00202E"/>
</svg>
