<svg width="56" height="55" viewBox="0 0 56 55" fill="none" xmlns="http://www.w3.org/2000/svg">
<path d="M10.2388 17.7103C12.8977 17.822 15.5856 17.0403 16.8277 14.5019C18.3843 11.3196 15.5468 8.34708 12.5131 8.20627C12.4985 8.2053 12.4811 8.20627 12.4626 8.20725C12.4345 8.21016 12.3908 8.2121 12.3626 8.2121C12.3471 8.2121 12.3305 8.2121 12.3121 8.2121C9.796 8.29561 7.15366 9.1492 6.06409 11.6129C4.7774 14.5232 7.31777 17.587 10.2388 17.7103ZM8.01113 11.3584C8.38889 10.3786 9.14245 9.55609 10.2747 9.18319C10.7846 9.01616 10.9098 9.29001 10.5214 9.66097C9.85912 10.2941 9.17547 10.9486 8.47046 11.6245C8.08396 11.9955 7.81886 11.8585 8.01113 11.3584ZM8.46075 11.7119C9.18907 11.0137 9.90767 10.3252 10.6127 9.65029C11.0002 9.27933 11.7557 8.99189 12.2684 9.14726C16.3227 10.3835 16.4315 17.622 11.0458 16.8927C10.9584 16.881 10.8759 16.8626 10.7953 16.8422C10.6583 16.8072 10.7312 16.5897 10.9565 16.3605C11.1817 16.1323 11.2721 15.8789 11.1584 15.7915C11.0905 15.739 11.0225 15.6846 10.9613 15.6225C10.9166 15.5769 10.8768 15.5283 10.839 15.4788C10.7749 15.3962 10.4728 15.571 10.165 15.8682C9.85718 16.1653 9.59887 16.4013 9.58624 16.3965C9.57362 16.3916 9.81542 16.1411 10.1271 15.84C10.4389 15.538 10.4214 15.5215 10.1038 15.8196C9.78629 16.1187 9.2687 16.212 8.98902 15.9566C8.70935 15.7012 8.84239 15.1447 9.22694 14.7709C9.24248 14.7553 9.25898 14.7398 9.27452 14.7242C9.65907 14.3494 9.863 13.758 9.79406 13.387C9.72608 13.0171 9.41145 13.0161 9.02981 13.3938C8.91328 13.5094 8.79674 13.6259 8.68021 13.7415C8.29955 14.1192 7.83148 14.0153 7.7635 13.4832C7.75768 13.4405 7.75282 13.3968 7.74894 13.3531C7.6965 12.8199 8.07328 12.0829 8.46075 11.7119Z" fill="#00202E"/>
<path d="M11.7713 20.4547C11.6411 20.4547 11.51 20.4644 11.3382 20.4926C11.107 20.5305 10.8885 20.5761 10.6788 20.6295C10.3195 20.7218 9.62613 20.9072 9.17554 21.1432C8.90364 21.2869 8.64921 21.4627 8.41809 21.6657C5.24262 24.1653 6.35161 29.6451 6.35161 33.8237C6.35161 38.7112 4.62501 47.3287 12.0772 46.6829C18.735 46.1061 17.2968 39.1278 17.2968 34.2695C17.2958 28.9877 19.272 20.4547 11.7713 20.4547ZM15.2361 43.8299C15.0574 44.9388 14.5787 45.5836 13.9504 45.8857C13.4668 46.1168 13.1609 46.0673 13.3425 46.0148C13.5241 45.9614 13.6872 45.8847 13.7135 45.8575C13.7397 45.8313 13.4377 45.7866 13.056 45.6778C12.6744 45.5681 12.2685 45.5244 12.1209 45.6594C11.9742 45.7953 11.4353 45.7701 10.9672 45.5089C10.5914 45.2991 10.2282 45.0428 9.89609 44.7485C9.49406 44.3931 9.47949 43.7881 9.79801 43.4657C10.1156 43.1423 10.3447 42.7607 10.3234 42.6111C10.302 42.4606 9.98349 42.6247 9.60185 42.9763C9.22021 43.3288 8.72204 43.3443 8.5521 42.9763C8.38216 42.6092 8.63367 41.9935 9.03182 41.6342C9.20079 41.4818 9.36879 41.3293 9.53776 41.1768C9.93591 40.8166 10.2573 40.1659 10.2573 39.726C10.2573 39.2852 9.93882 39.223 9.54747 39.5881C9.34451 39.7775 9.14155 39.9669 8.9386 40.1572C8.54628 40.5233 8.2297 40.3844 8.2297 39.8494C8.2297 38.9608 8.2297 38.0713 8.2297 37.1827C8.2297 36.6457 8.53171 35.8999 8.90558 35.5134C9.13087 35.2823 9.35617 35.0492 9.58243 34.8172C9.9563 34.4326 10.2583 33.8033 10.2583 33.411C10.2583 33.0197 9.95047 33.009 9.56981 33.3877C9.34743 33.6081 9.12699 33.8286 8.90655 34.0471C8.52588 34.4268 8.19862 34.2976 8.16269 33.7616C8.15493 33.6431 8.14619 33.5207 8.13842 33.3945C8.10152 32.8594 8.30156 32.1962 8.58609 31.9136C8.75797 31.7427 8.92889 31.5718 9.10174 31.4028C9.21536 31.2785 9.32897 31.1532 9.44259 31.0289C9.63098 30.8221 9.47173 30.9571 9.08523 31.33C8.97647 31.4348 8.86868 31.5388 8.76283 31.6417C8.37731 32.0136 8.04519 32.035 8.02383 31.6902C8.00343 31.3436 8.29768 30.758 8.67931 30.3822C8.97453 30.0899 9.26974 29.7986 9.56592 29.5092C9.94756 29.1324 10.2573 28.5012 10.2573 28.0991C10.2573 27.6971 9.95533 27.6825 9.58146 28.0681C9.25809 28.4031 8.93374 28.7362 8.61037 29.0693C8.23747 29.4548 7.92283 29.38 7.91992 28.9022C7.91701 28.4245 8.22873 27.7253 8.6026 27.3407C8.9318 27.0018 9.25809 26.6668 9.57952 26.3356C9.95339 25.9511 10.2564 25.3267 10.2564 24.9412V24.242C10.2564 24.1167 10.2632 23.9934 10.2758 23.871C10.2972 23.6671 10.0204 23.8098 9.63875 24.1856C9.35131 24.4663 9.06387 24.7508 8.77642 25.0344C8.39478 25.4112 8.1355 25.2839 8.24427 24.7586C8.5288 23.3767 9.03668 22.2367 9.89512 21.6249C10.3321 21.3141 11.209 21.2248 11.7383 21.3073C16.3995 22.0318 15.4206 27.1659 15.4206 31.0173C15.4206 35.1988 15.9033 39.692 15.2361 43.8299Z" fill="#00202E"/>
<path d="M20.513 34.4597C20.513 37.0088 19.3185 43.0762 21.2675 45.0417C23.1058 46.8965 27.6427 47.6238 29.7772 45.4894C32.4215 42.8461 31.4533 38.2266 31.4533 34.7841C31.4533 33.9295 31.4533 33.074 31.4533 32.2184C31.4533 29.8499 32.2108 24.8556 37.5207 28.134C39.7124 29.4868 39.1502 33.779 39.1502 36.0203C39.1502 40.0445 37.9043 45.8166 43.1899 46.6702C46.1003 47.1393 48.9213 45.8924 49.8458 43.2112C50.0206 42.7043 50.075 42.2508 50.0818 42.2265C50.0856 42.209 50.0934 42.1983 50.0934 42.1857C50.0934 35.8183 51.4073 27.9437 47.0578 22.7289C43.7298 18.7387 36.5389 18.9728 32.1972 21.9657C31.7553 22.2696 31.4455 22.3152 31.3698 22.0395C31.3222 21.8617 31.2367 21.7132 31.0959 21.6151C30.3103 21.0723 29.7859 20.6906 28.7605 20.5945C26.7037 20.4012 24.7528 20.4342 22.7067 20.7498C18.8155 21.35 20.5159 26.4375 20.5159 29.3634C20.513 31.0628 20.513 32.7613 20.513 34.4597ZM25.0121 21.2111C26.2842 21.2111 28.0176 21.113 29.0314 22.0909C29.4179 22.4629 29.4907 23.2329 29.5092 23.768C29.5296 24.2671 29.5733 24.7906 29.6209 24.8197C30.0277 25.0761 31.1921 24.7391 31.43 24.3351C31.9078 23.5204 32.4584 22.8523 33.0575 22.3123C33.4557 21.953 33.7383 21.7899 33.6392 21.888C33.5402 21.986 33.4605 22.0783 33.4654 22.0938C33.4703 22.1103 33.6014 21.9958 33.7626 21.8375C33.9238 21.6782 34.0714 21.5393 34.0918 21.5287C34.1122 21.517 33.983 21.65 33.8014 21.8248C33.6208 22.0006 33.479 22.2113 33.48 22.2958C33.4809 22.3803 33.7946 22.1492 34.1821 21.7792C34.5676 21.4092 35.2775 20.9227 35.7902 20.7693C35.9611 20.7188 36.133 20.6741 36.3049 20.6362C36.8293 20.5207 37.1789 20.5741 37.072 20.677C36.9662 20.779 37.0536 20.7741 37.2721 20.676C37.4916 20.578 37.6848 20.4983 37.6984 20.4857C37.712 20.4741 38.1597 20.4459 38.6928 20.4915C41.9362 20.7683 45.1787 22.8348 46.8276 25.5266C48.0454 27.5154 48.2143 30.1005 48.2143 32.3631C48.2143 35.4706 48.2143 38.5801 48.2143 41.6895C48.2143 42.2265 48.1541 43.0956 47.9716 43.5996C47.7103 44.326 47.318 44.8659 46.8509 45.2369C46.4295 45.57 45.6973 45.6389 45.3438 45.4913C44.9893 45.3437 44.597 45.299 44.4319 45.467C44.2659 45.636 43.8425 45.703 43.5094 45.5535C43.1763 45.4049 43.1365 45.0252 43.39 44.7669C43.6444 44.5095 43.7201 44.1396 43.5871 43.9181C43.4531 43.6987 43.119 43.7628 42.8034 44.0774C42.4878 44.392 41.9848 44.395 41.7469 44.0318C41.509 43.6686 41.6799 43.0306 42.0557 42.6489C42.1606 42.5431 42.2654 42.4353 42.3703 42.3304C42.7471 41.9478 43.053 41.4506 43.053 41.2175C43.053 40.9864 42.7452 41.1059 42.3655 41.4836C42.1887 41.6594 42.013 41.8352 41.8372 42.0109C41.4575 42.3896 41.1166 42.5839 41.0807 42.4431C41.0603 42.3595 41.0399 42.2731 41.0254 42.1847C41.0137 42.1119 41.0059 42.0381 41.0011 41.9624C40.9923 41.839 41.2924 41.4312 41.6711 41.0515C41.9071 40.8145 42.1382 40.5824 42.3684 40.3523C42.7471 39.9716 43.053 39.4948 43.053 39.2851C43.053 39.0743 42.7452 39.2122 42.3655 39.59C42.1275 39.8279 41.8887 40.0649 41.6507 40.3018C41.271 40.6805 40.97 40.6242 40.9885 40.1775C41.0069 39.7318 41.3244 39.0617 41.7032 38.682C41.9246 38.4596 42.146 38.2373 42.3684 38.0139C42.7471 37.6342 43.0549 37.0729 43.0549 36.7593C43.0549 36.4456 42.7422 36.4951 42.3577 36.868C42.1237 37.0943 41.9168 37.2934 41.7342 37.4701C41.3497 37.843 41.341 37.8352 41.7226 37.4594C41.9071 37.2769 42.1198 37.072 42.3577 36.8379C42.7422 36.464 42.7393 36.4621 42.3528 36.834C42.1489 37.0302 41.943 37.2283 41.7333 37.4293C41.3487 37.8012 41.0419 37.6682 41.0535 37.1302C41.0632 36.6563 41.0729 36.1795 41.0778 35.7008C41.0846 35.1647 41.3905 34.4209 41.7682 34.0402C41.9693 33.8372 42.1703 33.6343 42.3693 33.4333C42.7471 33.0516 43.053 32.6244 43.053 32.4787V32.2155C43.053 32.1689 43.0501 32.1252 43.0472 32.0815C43.0413 32.0077 42.7354 32.2602 42.3606 32.6447C42.1586 32.8516 41.9566 33.0584 41.7546 33.2653C41.3808 33.6498 41.071 33.5255 41.0448 32.9895C41.0234 32.5292 40.9884 32.0708 40.9389 31.6154C40.8787 31.0823 41.1118 30.3423 41.4847 29.9587C41.5876 29.8548 41.6896 29.749 41.7925 29.6431C42.1674 29.2595 42.382 28.7342 42.2499 28.4817C42.1693 28.3273 42.0809 28.1787 41.9867 28.0379C41.9586 27.9971 41.9256 27.9612 41.8906 27.9272C41.8343 27.8699 41.4963 28.1204 41.1293 28.4885C40.7641 28.8575 40.3971 28.9148 40.2747 28.6332C40.1523 28.3516 40.2436 27.9146 40.5184 27.6368C40.7933 27.3581 40.9088 27.059 40.7709 26.9736C40.6311 26.8891 40.33 27.028 40.1086 27.2639C39.8872 27.4999 39.493 27.4106 39.155 27.1455C38.8142 26.8794 38.5442 26.6803 38.6083 26.6123C38.6724 26.5434 38.6598 26.4822 38.5801 26.4735C38.5345 26.4676 38.4879 26.4628 38.4384 26.4628C38.3354 26.4628 38.2344 26.4667 38.1354 26.4735C37.9693 26.4841 37.4148 26.3812 36.8788 26.356C33.6489 26.2025 29.5762 29.077 29.5762 32.4253C29.5762 35.3619 29.5762 38.2984 29.5762 41.234C29.5762 43.3947 29.2528 45.9283 26.2298 45.9283C26.1851 45.9283 26.1453 45.9244 26.1055 45.9196C26.0366 45.9099 26.09 45.7924 26.2249 45.6525C26.3609 45.5117 26.1609 45.2466 25.8336 44.9825C25.5063 44.7193 25.0664 44.6785 24.7868 44.9592C24.5071 45.2408 23.8836 45.267 23.5127 44.8795C23.3923 44.7543 23.2825 44.6173 23.1815 44.4736C22.8756 44.0327 23.0291 43.2986 23.3952 42.9063C23.5049 42.7888 23.6137 42.6722 23.7234 42.5557C24.0895 42.1653 24.3896 41.4118 24.3925 40.8767C24.3935 40.6844 24.3944 40.4921 24.3954 40.3028C24.3983 39.7667 24.3323 39.4016 24.2478 39.4871C24.1973 39.5385 24.1458 39.589 24.0944 39.6405C23.7215 40.0182 23.3447 40.3921 22.966 40.767C22.5853 41.1457 22.2367 41.0165 22.224 40.4805C22.2046 39.7085 22.2347 38.9248 22.2736 38.1809C22.3017 37.6459 22.6348 36.9059 23.0135 36.5243C23.2515 36.2873 23.4884 36.0494 23.7283 35.8095C24.107 35.4289 24.4148 34.9297 24.4148 34.6928C24.4148 34.4549 24.0944 34.5559 23.6982 34.9171C23.4933 35.1026 23.2922 35.2881 23.0932 35.4687C22.697 35.8299 22.3794 36.0329 22.3823 35.9193C22.3843 35.8503 22.3862 35.7804 22.3862 35.7153C22.3872 35.1288 22.3872 34.5413 22.3872 33.9557C22.3872 33.4187 22.7028 32.6855 23.0922 32.3165C23.299 32.1223 23.5049 31.9271 23.7098 31.7319C24.0992 31.3629 24.4158 31.0259 24.4158 30.9803C24.4158 30.9347 24.1051 31.2017 23.7215 31.5746C23.5078 31.7844 23.2942 31.9931 23.0806 32.2019C22.6979 32.5768 22.3862 32.4466 22.3872 31.9096C22.3872 31.3804 22.3872 30.8511 22.3872 30.3219C22.3872 29.7849 22.7047 29.0556 23.098 28.6914C23.3 28.504 23.501 28.3176 23.702 28.1301C24.0953 27.766 24.4148 27.0872 24.4148 26.6152C24.4148 26.1443 24.0963 26.0569 23.704 26.422C23.502 26.6094 23.3 26.7968 23.098 26.9852C22.7057 27.3504 22.3872 27.5417 22.3872 27.4135C22.3872 27.3358 22.3872 27.2591 22.3872 27.1814C22.3872 26.9716 22.3785 26.7531 22.3639 26.5288C22.3416 26.1685 22.6319 25.5781 23.0233 25.212C23.2495 25.0013 23.4748 24.7906 23.6991 24.5798C24.0905 24.2137 24.4071 23.7447 24.4051 23.5349C24.4032 23.3252 24.0885 23.4592 23.7069 23.836C23.4826 24.0564 23.234 24.3021 22.9543 24.5779C22.5727 24.9556 22.2221 24.8275 22.2134 24.2914C22.191 22.6338 22.5999 21.2111 25.0121 21.2111Z" fill="#00202E"/>
<path d="M24.0978 44.2013C23.7537 44.5512 23.7615 44.5589 24.1065 44.21C24.4526 43.862 24.4419 43.8504 24.0978 44.2013Z" fill="#00202E"/>
</svg>
