<svg width="56" height="55" viewBox="0 0 56 55" fill="none" xmlns="http://www.w3.org/2000/svg">
<path d="M48.4992 12.2063C40.7001 12.2063 32.9036 12.2063 25.1037 12.2063C20.5573 12.2063 16.01 12.2063 11.4628 12.2063C9.76296 12.2063 7.55856 11.858 5.97683 12.6489C5.55803 12.8579 5.18257 13.1645 5.09592 13.2529C5.00842 13.3395 4.90309 13.512 4.88015 13.6284C4.85806 13.7456 4.91243 14.217 4.91243 14.6868C4.91243 18.8204 4.91243 22.9539 4.91243 27.0883C4.91243 30.0794 4.91243 33.0729 4.91243 36.0648C4.91243 37.3484 4.54631 39.6538 4.92602 40.8431C5.83412 43.6982 10.7246 42.6992 13.0258 42.6992C19.526 42.6992 26.0271 42.6992 32.5281 42.6992C37.5757 42.6992 42.625 42.6992 47.6727 42.6992C51.2124 42.6992 51.057 40.1899 51.057 37.3543C51.057 35.9561 51.057 34.557 51.057 33.1587C51.057 32.6898 51.0655 32.1113 51.0663 31.8667C51.068 31.645 51.068 31.4241 51.068 31.4241C51.0595 30.4217 51.0578 29.4125 51.057 28.4025C51.057 27.9336 51.0646 27.1724 51.0663 26.7035C51.068 26.1692 51.068 25.5805 51.068 25.5805C51.0621 25.3172 51.0595 25.0521 51.0587 24.7846C51.0561 24.3445 51.0655 23.7609 51.0663 23.4781C51.068 23.2198 51.068 22.9633 51.068 22.9633C51.0604 22.4307 51.0587 21.8946 51.057 21.3552C51.057 20.8855 51.0655 20.3095 51.0663 20.064C51.068 19.8202 51.0604 19.5756 51.0587 19.5186C51.057 19.4838 51.057 19.449 51.057 19.4133C51.0578 16.7672 52.2777 12.2063 48.4992 12.2063ZM48.2342 41.4386C43.5867 41.4386 38.94 41.4386 34.2925 41.4386C27.6649 41.4386 21.0372 41.4386 14.4113 41.4386C12.4643 41.4386 10.5181 41.4386 8.57199 41.4386C8.41908 41.4386 8.28231 41.4233 8.15659 41.3987C7.92978 41.3528 8.03427 41.0139 8.37661 40.6919C9.05194 40.0565 9.73152 39.4177 10.4154 38.7729C10.7568 38.4518 11.0346 38.1282 11.0346 38.05V37.9107C11.0346 37.9107 11.0346 37.6627 11.0346 37.3577C11.0346 37.0519 10.7747 37.0816 10.4544 37.4248C9.56842 38.3745 8.67902 39.3217 7.78792 40.268C7.46596 40.6095 6.94863 40.59 6.80422 40.144C6.60204 39.5128 6.58081 38.7296 6.58081 37.9727C6.58081 30.1838 6.58081 22.3941 6.58081 14.6044C6.58081 14.1355 6.90531 13.5366 7.36658 13.4508C7.71571 13.3871 8.11242 13.3693 8.50828 13.3744C8.97804 13.3803 9.08337 13.6759 8.74358 14.0013C8.23729 14.4872 7.72506 14.979 7.20517 15.4768C6.86708 15.8013 6.59185 16.0842 6.59185 16.1071C6.59185 16.1309 6.86538 15.8863 7.20433 15.5618C7.75139 15.0359 8.28911 14.5195 8.82513 14.0047C9.16322 13.6802 9.64148 13.4313 9.89208 13.4474C10.0662 13.4593 10.2208 13.4661 10.3457 13.4661C13.0751 13.4661 15.8053 13.4661 18.5347 13.4661C25.288 13.4661 32.0422 13.4661 38.7973 13.4661C40.2924 13.4661 49.392 12.3541 49.392 14.7361C49.392 16.5174 49.392 18.2979 49.392 20.081C49.392 20.5499 49.1219 21.1972 48.788 21.5285C48.5519 21.7613 48.3149 21.9957 48.0779 22.2293C47.7432 22.5598 47.4586 22.4468 47.4059 21.9804C47.1834 20.0266 46.4749 18.6199 44.5466 19.9867C42.7542 21.2567 40.9618 22.5266 39.1694 23.7958C37.7975 24.7676 35.7536 25.6451 36.1342 27.6133C36.3024 28.4815 37.676 29.5196 38.7523 30.3036C39.1311 30.5789 39.1677 31.0733 38.8364 31.4054C38.7693 31.4725 38.7022 31.5388 38.635 31.6059C38.302 31.938 37.7304 31.9771 37.3583 31.6917C36.7713 31.2406 36.2106 30.7997 35.7145 30.3648C34.7385 29.5102 33.9145 28.9062 32.5095 28.9988C31.5614 29.06 30.6933 29.7982 29.9687 30.3113C28.9094 31.0588 28.0998 31.1208 27.3744 30.8634C26.9318 30.7071 26.8969 30.2238 27.2401 29.9044C27.314 29.8364 27.3871 29.7676 27.461 29.6996C27.8042 29.3802 27.8535 29.1662 27.5969 29.2919C27.4415 29.3675 27.2971 29.4618 27.1688 29.5756C27.1688 29.5756 26.9853 29.7379 26.7593 29.9392C26.5325 30.1405 26.095 30.121 25.7867 29.8874C25.604 29.7489 25.418 29.6071 25.2269 29.4694C25.1708 29.4219 25.102 29.3777 25.0069 29.3403C22.3488 28.2989 20.903 30.0377 19.041 31.69C16.9495 33.5452 13.8456 35.4115 12.5662 37.9557C12.4201 38.2454 12.6164 38.5325 12.8873 38.6396C14.3867 39.2376 15.9608 39.0252 17.5663 39.0252C21.0534 39.0252 24.5413 39.0252 28.0293 39.0252C31.5164 39.0252 35.0044 39.0252 38.4915 39.0252C40.1692 39.0252 41.6439 39.1985 43.2018 38.5809C43.5697 38.4357 43.7591 38.0483 43.5799 37.6983C43.4414 37.4308 43.2808 37.1666 43.1042 36.9075C42.8383 36.521 42.8578 35.9569 43.1866 35.6214C43.2639 35.5407 43.342 35.4617 43.4176 35.3827C43.7455 35.0463 44.1091 34.8602 44.2314 34.9673C44.3546 35.0734 44.482 35.1992 44.5279 35.2382C44.5729 35.2773 44.6553 35.3393 44.7173 35.3708C44.7776 35.403 45.1624 35.6333 45.628 35.6961C47.0364 35.889 47.4509 34.0456 47.5223 32.0102C47.5401 31.5405 47.7992 30.8898 48.1271 30.5542C48.3522 30.324 48.5748 30.0964 48.7991 29.8653C49.1287 29.5298 49.3928 29.3344 49.3928 29.4287C49.3928 29.4847 49.3928 29.5425 49.3928 29.5994C49.3928 29.8891 49.4532 30.8702 49.5041 32.1504C49.522 32.6193 49.4803 33.0534 49.4149 33.123C49.3487 33.191 49.3512 33.2963 49.4217 33.3567C49.4922 33.4178 49.5593 33.8485 49.5661 34.3174C49.6103 37.6329 49.4277 41.4386 48.2342 41.4386ZM48.8118 25.3834C48.523 25.6918 48.235 26.001 47.9462 26.3102C47.6259 26.6526 47.3864 26.5489 47.4136 26.0809C47.4305 25.8099 47.4458 25.5092 47.4603 25.1932C47.4798 24.7242 47.7474 24.0659 48.0668 23.7236C48.3166 23.456 48.5646 23.1892 48.8118 22.9234C49.1321 22.5802 49.3911 22.6821 49.3911 23.151C49.3911 23.4059 49.3911 23.6599 49.3911 23.913C49.3903 24.3811 49.1321 25.0394 48.8118 25.3834ZM49.3903 26.4759C49.3903 26.9168 49.1227 27.5437 48.7923 27.8758C48.5468 28.123 48.3021 28.3702 48.0583 28.6149C47.7279 28.9479 47.4407 28.8824 47.4127 28.4713C47.3855 28.0593 47.6336 27.4553 47.9632 27.1223C48.2444 26.8386 48.5196 26.5583 48.7931 26.2839C49.1219 25.9509 49.3903 26.0367 49.3903 26.4759ZM47.3634 27.3177C47.3634 27.5182 47.3592 27.6006 47.3541 27.5003C47.3515 27.4332 47.3507 27.3729 47.3507 27.3194C47.3507 27.2667 47.3524 27.2047 47.3541 27.1359C47.36 27.0348 47.3634 27.1164 47.3634 27.3177ZM45.6076 33.5435C45.6331 34.0116 45.5812 34.0736 45.2279 33.7644C43.2214 32.0094 41.2115 30.2527 39.2042 28.4959C38.1356 27.5615 37.3234 26.6857 38.799 25.6408C40.3374 24.551 41.875 23.4619 43.4134 22.3712C44.0454 21.9235 45.6849 20.1897 45.6849 21.4062C45.6849 22.8579 45.6849 24.3106 45.6849 25.7623C45.6849 27.734 45.6849 29.7073 45.6849 31.6781C45.6849 32.0417 45.571 32.8962 45.6076 33.5435ZM40.9414 37.0205C41.3933 37.4163 42.4118 37.7654 41.5607 37.7654C39.2424 37.7654 36.9233 37.7654 34.6043 37.7654C28.313 37.7654 22.0209 37.7654 15.728 37.7654C13.1651 37.7654 15.2837 36.7996 16.5936 35.6384C17.8882 34.489 20.8894 30.6995 23.1652 30.4022C23.6307 30.3427 24.3111 30.702 24.6858 30.9841C25.9302 31.9185 27.3905 32.9464 28.945 32.3245C30.4877 31.7053 32.5239 29.6538 34.1005 31.0342C35.3 32.0833 36.4986 33.1332 37.6981 34.1823C38.7795 35.1287 39.86 36.075 40.9414 37.0205ZM39.8481 32.5395C39.8965 32.4885 39.9424 32.4384 39.9891 32.3874C40.3094 32.0451 40.8437 32.0077 41.1826 32.3033C41.5207 32.5998 41.5352 33.1162 41.2124 33.4569C41.1792 33.4926 41.1453 33.5282 41.1121 33.5631C40.7893 33.9037 40.2516 33.9436 39.9033 33.6625C39.555 33.383 39.5287 32.8818 39.8481 32.5395ZM41.1784 34.7583C40.9516 34.5527 41.0314 34.1195 41.3619 33.7865C41.3976 33.7508 41.4332 33.7151 41.4681 33.6795C41.7994 33.3448 42.2538 33.2403 42.4849 33.4425C42.7151 33.6446 42.6361 34.0787 42.3056 34.4126C42.264 34.4542 42.2215 34.4958 42.1816 34.5366C41.8512 34.8704 41.4052 34.9647 41.1784 34.7583Z" fill="#00202E"/>
<path d="M19.9924 27.2871C20.1402 26.5039 19.8616 25.8957 19.3935 25.3868C19.0766 25.0411 19.0325 24.5543 19.3663 24.2247C19.475 24.1186 19.5838 24.0115 19.6925 23.9045C20.0264 23.574 20.6074 23.5273 20.9897 23.7983C21.343 24.0489 21.6973 24.2995 22.0507 24.5501C22.4329 24.8211 22.4746 25.3104 22.1416 25.6417C19.7809 27.9905 17.5136 30.2467 15.3423 32.4061C15.0093 32.7374 14.74 33.2165 14.74 33.4764V33.9479C14.74 34.0481 14.7468 34.1407 14.7596 34.2231C14.7817 34.3735 15.0951 34.2163 15.4213 33.8808C16.4543 32.8121 17.489 31.7452 18.5177 30.6952C19.989 29.1747 21.4467 27.6719 22.8959 26.1811C23.2229 25.8447 23.7972 25.792 24.1803 26.063C24.8055 26.5056 25.4316 26.9499 26.0568 27.3916C26.0933 27.4179 26.1375 27.4426 26.1851 27.4647C29.3868 28.7729 31.8978 25.9934 34.3146 24.28C37.2742 22.1834 41.8452 20.0903 43.946 17.0687C44.1634 16.7561 44.1133 16.3722 43.7209 16.2303C42.23 15.6917 40.6644 15.8871 39.0895 15.8871C35.5863 15.8871 32.083 15.8871 28.5798 15.8871C24.9916 15.8871 21.4034 15.8871 17.8152 15.8871C16.1391 15.8871 14.3646 15.6365 12.7735 16.2116C12.4074 16.3441 11.8705 16.7238 12.1831 17.1749C13.1243 18.5298 14.661 19.5662 16.174 20.5236C16.5707 20.7742 16.6225 21.2439 16.2886 21.5718C16.1825 21.6763 16.0754 21.7816 15.9692 21.8861C15.6354 22.2157 15.0535 22.2616 14.6712 21.9915C13.6034 21.2337 12.5356 20.4768 11.4662 19.7191C11.4245 19.6902 11.3795 19.6664 11.3319 19.6486C11.2776 19.6231 11.2291 19.601 11.1841 19.584C11.1017 19.5501 11.0329 19.2324 11.0329 18.8679C11.0329 18.5043 10.7602 18.4746 10.423 18.8025C10.3839 18.8399 10.3457 18.8773 10.3066 18.9146C9.97022 19.2408 9.67885 19.5144 9.65506 19.5254C9.63298 19.5365 9.88697 19.2816 10.2234 18.9546C10.2896 18.89 10.3559 18.8246 10.423 18.7592C10.7594 18.4321 10.7483 18.4211 10.4069 18.7422C10.2939 18.8484 10.1817 18.9554 10.0688 19.0633C9.73067 19.3878 9.39852 19.6996 9.33226 19.7633C9.26685 19.8278 8.94745 20.1506 8.6102 20.4768C8.12515 20.9475 7.6316 21.4257 7.12701 21.9125C6.45253 22.6039 7.17713 21.9116 8.50147 20.6263C8.83871 20.2993 9.09441 20.058 9.07402 20.0878C9.05278 20.1167 8.76481 20.4072 8.42757 20.7342C8.02576 21.1233 7.61631 21.5208 7.19922 21.9261C6.86283 22.2531 6.58929 22.897 6.58929 23.3668V23.546C6.58929 24.0149 6.85433 24.1228 7.18223 23.7856C7.40904 23.5545 7.63415 23.3226 7.86096 23.0915C8.18886 22.7551 8.42332 22.8622 8.41228 23.3319C8.40208 23.7337 8.40548 24.1406 8.41822 24.5407C8.43181 25.0097 8.18631 25.6587 7.85587 25.9925C7.63245 26.2176 7.40989 26.4427 7.18563 26.6687C6.85603 27.0025 6.58929 27.344 6.58929 27.4298C6.58929 27.5173 6.86877 27.3279 7.21111 27.0076C7.42773 26.8046 7.64435 26.6007 7.86096 26.396C8.20245 26.0741 8.50317 26.193 8.53715 26.661C8.57962 27.2472 8.61615 27.7271 8.61615 28.0211C8.61615 28.1451 8.60681 28.3473 8.59406 28.6055C8.57792 28.9275 8.29335 29.4558 7.9595 29.7863C7.70466 30.0377 7.44897 30.29 7.19412 30.5432C6.85943 30.8736 6.59014 31.5201 6.59014 31.9898V32.9353C6.59014 33.4042 6.85518 33.5104 7.18138 33.1732C7.42603 32.9192 7.66983 32.6669 7.91363 32.4146C8.24068 32.0782 8.50912 32.1861 8.53715 32.6541C8.538 32.6788 8.5397 32.7034 8.5414 32.728C8.57113 33.1961 8.35451 33.8468 8.02831 34.184C7.74544 34.4754 7.46256 34.7676 7.18053 35.0581C6.85433 35.3945 6.59014 35.9331 6.59014 36.2585C6.59014 36.5838 6.85943 36.5796 7.19073 36.2466C7.64775 35.7912 8.10476 35.3342 8.56263 34.8789C8.60511 34.8373 8.64758 34.794 8.68921 34.7532C8.75971 34.6835 8.87524 34.8696 8.99417 35.1473C9.11395 35.426 8.99927 35.8915 8.66797 36.2253C8.17442 36.7214 7.68087 37.2175 7.18818 37.7145C6.85688 38.0475 6.58929 38.3465 6.58929 38.3822C6.58929 38.4178 6.85858 38.1783 7.19073 37.847C7.70466 37.3339 8.22199 36.8217 8.73763 36.3086C9.07147 35.9781 9.63722 36.052 10.1036 36.0062C10.4536 35.9713 10.8766 35.7539 11.3888 35.2994C13.1158 33.7661 14.8428 32.2345 16.5707 30.7012C17.3989 29.9681 19.7579 28.5299 19.9924 27.2871ZM18.6825 23.1926C18.5737 23.3056 18.4642 23.4177 18.3554 23.5299C18.0284 23.8663 17.5849 24.0277 17.3658 23.8849C17.2307 23.7966 17.099 23.7083 16.9742 23.6208C16.9215 23.5842 16.8705 23.5477 16.8187 23.5112C16.7329 23.4509 16.93 23.1289 17.2571 22.7925C17.3743 22.6727 17.4898 22.5547 17.6053 22.4357C17.9332 22.0993 18.2458 21.8581 18.3019 21.8963C18.3359 21.9193 18.3699 21.9422 18.403 21.9651C18.5483 22.0679 18.6935 22.1707 18.8388 22.2735C19.0809 22.4434 19.0104 22.8545 18.6825 23.1926ZM14.819 17.6973C14.4767 17.3771 14.5973 17.0195 15.0637 16.9693C17.5246 16.7018 20.4307 17.1443 22.6546 17.1443C27.8925 17.1443 33.1313 17.1443 38.37 17.1443C39.3834 17.1443 40.3994 17.1443 41.4137 17.1443C41.8834 17.1443 41.8936 17.2429 41.502 17.4986C40.7273 18.0023 39.6655 18.9036 39.1736 19.2527C36.9752 20.8098 34.7759 22.3678 32.5774 23.9249C31.3295 24.8083 29.7469 26.5107 28.0752 26.5107C27.6054 26.5107 26.9326 26.1412 26.5504 25.8693C24.7112 24.5662 22.8704 23.2631 21.0313 21.9583C19.2117 20.668 16.603 19.3589 14.819 17.6973ZM10.2862 34.0948C10.2862 33.9411 10.2862 33.7899 10.2862 33.6378C10.2862 33.3855 10.2947 32.8809 10.2956 32.5131C10.2973 32.1793 10.2973 31.8454 10.2973 31.8454C10.2913 31.5056 10.2888 31.1616 10.2871 30.8167C10.2854 30.3478 10.2947 29.8084 10.2956 29.613C10.2973 29.4363 10.2973 29.2588 10.2973 29.2588C10.3499 27.8979 10.5937 23.5324 10.5139 21.6619C10.4935 21.193 10.7067 21.046 11.089 21.3187C13.2237 22.8307 15.3585 24.3445 17.4932 25.8583C19.1454 27.0297 17.5807 28.0279 16.6267 28.8748C15.1283 30.2034 13.6315 31.5328 12.133 32.8622C11.5681 33.3617 10.2862 35.0284 10.2862 34.0948Z" fill="#00202E"/>
<path d="M44.1966 19.7471L44.3495 19.6393C44.7317 19.3691 45.3272 18.896 45.6789 18.5859C46.3797 17.9675 47.0805 17.3491 47.7788 16.734C48.1305 16.424 48.3013 16.1003 48.1424 16.068C47.981 16.0349 47.5741 16.3 47.2377 16.6262C46.1971 17.6353 45.1565 18.642 44.115 19.6478C43.7769 19.9748 43.8126 20.0181 44.1966 19.7471Z" fill="#00202E"/>
<path d="M7.20087 19.7846C8.25847 18.755 9.33646 17.7042 10.4297 16.6262C10.7644 16.2966 11.0337 15.6697 11.0337 15.2271C11.0337 14.7828 10.7644 14.6903 10.4314 15.0216C9.35006 16.0953 8.27037 17.1648 7.19493 18.2343C6.86108 18.5647 6.5918 19.1781 6.5918 19.6053C6.5918 20.0309 6.86533 20.1125 7.20087 19.7846Z" fill="#00202E"/>
<path d="M35.5005 25.9068C35.831 25.674 36.3721 25.2221 36.7136 24.8985C39.6731 22.0824 42.3889 19.4898 44.8184 17.1563C45.0028 16.9779 45.1956 16.7885 45.3986 16.5931C45.7189 16.2822 45.9542 16.0291 45.9236 16.0291C45.8939 16.0291 45.6883 16.2023 45.4632 16.4156C45.2381 16.6279 45.2338 16.6279 45.453 16.4147C45.673 16.2023 45.7902 16.0291 45.7155 16.0291C45.6407 16.0291 45.3069 16.2941 44.9688 16.6203C42.2725 19.2324 39.6035 21.8318 36.9871 24.4007C36.6515 24.7294 36.6515 24.7286 36.9862 24.3998C40.4368 21.0045 45.1939 16.3434 44.375 17.0731C41.3568 20.0242 38.4066 22.9073 35.509 25.7377C35.1752 26.0648 35.1701 26.1413 35.5005 25.9068Z" fill="#00202E"/>
<path d="M46.1036 36.5167C45.847 36.7792 45.5922 37.0417 45.3357 37.3042C45.0078 37.6406 44.9101 37.9115 45.1173 37.9115C45.3246 37.9115 45.5616 37.8436 45.6474 37.7595L45.8037 37.6066C46.0433 37.3653 46.2837 37.1241 46.5258 36.8811C46.8562 36.5481 47.0287 36.1956 46.9114 36.0928C46.7925 35.9909 46.4306 36.1812 46.1036 36.5167Z" fill="#00202E"/>
</svg>
