<svg width="56" height="55" viewBox="0 0 56 55" fill="none" xmlns="http://www.w3.org/2000/svg">
<path d="M51.4888 25.6425C50.5937 25.5641 50.6066 25.2258 51.3736 24.5565C52.1663 23.867 52.8854 23.0806 53.008 22.8741C53.0264 22.84 53.031 22.8114 53.0246 22.7829C53.0098 22.7322 52.9213 22.6621 52.8642 22.6003C52.8319 22.5625 52.7978 22.5257 52.7637 22.4879C52.5314 22.2279 51.6676 22.5395 51.4206 22.6206C46.8436 24.1269 47.3727 21.46 45.765 18.8032C44.6293 16.9282 42.2546 15.0669 40.1048 14.5599C39.7674 14.4806 39.5093 14.4207 39.2963 14.3728C38.8492 14.2741 38.4934 14.1949 38.5091 14.1543C38.5238 14.1147 38.5487 14.0796 38.5671 14.075C38.5773 14.0723 38.5874 14.0704 38.6013 14.0676C38.9764 13.9819 39.3609 13.8833 39.7342 13.7616C40.1159 13.6334 40.4431 13.4869 40.7068 13.3126C40.8294 13.2324 40.9105 13.1439 40.9492 13.0481C41.0239 12.8619 40.9538 12.6314 40.9861 12.5503C41.0055 12.5023 41.0239 12.4535 41.0423 12.4009C41.0893 12.2608 40.9889 12.2304 40.8727 12.1935C40.4643 12.0663 40.0541 12.0082 39.6448 12.0008C38.9562 11.9879 38.4547 12.0008 38.4786 11.8497C38.4916 11.7667 38.498 11.6764 38.4952 11.5749C38.4916 11.4459 38.1901 11.4468 38.1311 11.4413C37.6084 11.3952 37.1115 11.4376 36.6322 11.5427C35.8182 11.7224 34.8567 11.9068 34.4216 12.0045C34.1146 12.0746 33.815 12.1954 33.6601 12.2691C30.4336 13.7994 29.2002 16.9604 27.5777 19.8458C27.079 20.7336 26.265 21.1963 25.8575 20.8884C25.5911 20.6866 25.3413 20.4874 25.12 20.328C23.3565 19.0503 20.9293 18.2731 18.9501 17.4057C16.6786 16.4101 13.996 15.0098 11.4978 14.759C11.0931 14.7185 9.61998 14.8475 9.58956 15.4357C9.52964 16.5603 9.9583 17.26 10.4091 18.2538C10.5547 18.5755 11.0636 19.0189 11.5983 19.4651C12.3229 20.0689 12.0205 20.6442 11.5144 21.3623C11.2701 21.7089 11.1733 22.1947 11.2931 22.8935C11.5227 24.2265 14.9575 25.8287 14.9446 25.8324C14.6386 25.9411 13.0447 26.5376 13.1581 27.1939C13.3765 28.467 14.739 29.4313 15.954 29.7521C18.3306 30.3817 18.2771 29.2239 17.2142 31.1929C16.6122 32.3093 17.5848 33.5824 18.6578 33.7852C18.9694 33.8442 19.2368 33.9124 19.4967 33.9622C19.9623 34.0535 19.671 34.5098 18.7777 34.9993C15.3152 36.8965 11.9384 37.2956 8.64466 36.2014C7.67855 35.8797 6.51701 35.2224 5.9722 34.9255C5.6431 34.7458 5.30846 34.5771 4.96738 34.4185C4.65671 34.2664 2.69961 34.7089 2.93376 35.05C8.93043 43.7689 22.6633 45.1609 31.9906 42.0985C36.4266 40.642 40.8976 38.4673 43.9618 34.814C45.6682 32.7813 46.7919 28.9381 49.5105 28.2098C50.7983 27.8641 52.0216 27.2824 52.985 26.3569C53.0744 26.2712 53.1343 26.1882 53.0264 26.0932C52.7241 25.8222 52.1295 25.6987 51.4888 25.6425ZM37.5042 14.1349C37.6951 14.1414 37.6951 14.1478 37.5042 14.1386C37.3116 14.1303 37.3116 14.1285 37.5042 14.1349ZM47.8392 27.9858C45.0561 29.2045 44.6007 31.5552 42.9026 34.0037C37.9348 41.1554 27.0642 44.1376 17.7839 42.2727C16.7856 42.0718 16.5551 41.3131 17.2511 40.6567C17.9471 39.9994 18.4974 39.4583 18.4808 39.4472C18.4652 39.4371 17.8992 39.969 17.217 40.6355C16.5348 41.3038 15.5254 41.7205 14.9723 41.538C14.4192 41.3564 14.3039 40.8604 14.7049 40.4539C15.1059 40.0474 15.0829 40.0381 14.6524 40.4336C14.2228 40.8291 13.0972 40.865 12.1781 40.4262C10.8405 39.7874 9.58771 39.0186 8.4483 38.1152C7.6509 37.4818 7.1153 36.9131 7.17614 36.9324C7.23698 36.9518 7.34668 37.0034 7.42228 37.0513C7.49787 37.0983 7.5753 37.1251 7.59374 37.1085C7.61218 37.09 8.41143 37.3408 9.41256 37.527C9.84768 37.6081 10.2865 37.6671 10.7327 37.7022C11.7476 37.7814 12.3026 37.9529 11.967 38.2645C11.6315 38.5761 11.7172 38.9282 12.1634 39.0186C12.6105 39.1117 13.4272 38.7494 13.9831 38.2387C14.5399 37.7289 15.8001 37.1573 16.7828 36.8909C19.0939 36.2641 21.6013 35.2205 22.2116 33.4294C22.3075 33.1464 21.7709 33.209 21.6382 33.2146C21.2971 33.2081 21.0003 33.1758 20.7449 33.1215C20.2591 33.0173 20.1844 32.5306 20.5034 32.2356C20.8224 31.9396 20.9901 31.6871 20.8767 31.6732C20.8067 31.664 20.7375 31.6539 20.6712 31.641C20.4822 31.6059 20.3052 31.5626 20.1356 31.511C19.8434 31.4225 19.7272 30.9625 19.9484 30.5504C20.1697 30.1383 20.4739 29.7853 20.5578 29.7078C20.614 29.6571 20.6555 29.5954 20.6398 29.5299C20.6315 29.4967 20.6232 29.4645 20.6149 29.4304C20.5845 29.3041 20.3356 29.2939 20.2517 29.2967C19.2755 29.3317 18.4689 29.2506 17.8402 29.0791C16.8584 28.8099 16.6261 27.8005 16.9589 27.4585C17.2917 27.1165 17.3709 26.7478 17.1478 26.6178C16.9248 26.4869 16.7109 26.4085 16.6574 26.4638C16.603 26.5173 16.7229 26.2914 16.9791 26.0047C17.122 25.8443 17.2861 25.6793 17.4751 25.5143C17.5323 25.4636 17.6558 25.3097 17.5175 25.2507C17.3285 25.1714 16.8399 24.8819 16.2546 24.4901C15.577 24.0375 15.0718 23.4355 15.2027 23.2447C15.2894 23.1193 15.4046 23.0354 15.5392 23.0115C15.6001 23.0013 15.6609 22.9894 15.7227 22.9783C15.8241 22.9589 16.0711 22.7819 16.273 22.5828C16.4749 22.3837 16.5422 22.1532 16.4233 22.0684C16.356 22.0205 16.2841 21.9707 16.2085 21.9163C16.0886 21.8315 15.9752 21.7458 15.8655 21.6591C15.6803 21.5116 15.2166 21.7126 14.8229 22.1191C14.4293 22.5247 13.9232 22.6898 13.7139 22.4648C13.5038 22.2399 13.5886 21.8039 13.866 21.5208C14.1444 21.2369 14.6063 20.965 14.8635 20.8313C15.0451 20.7363 15.176 20.6128 15.1889 20.4496C15.2405 19.8237 14.562 19.1673 13.7877 18.4179C13.0567 17.709 12.6759 16.9254 12.8631 16.7373C13.0502 16.5484 13.7573 16.5889 14.4293 16.859C15.1013 17.1291 15.5715 17.4352 15.4913 17.5135C15.4111 17.5919 15.6784 17.7753 16.0868 17.9247C16.4952 18.0731 16.8685 18.1551 16.9201 18.1017C16.9718 18.0491 17.0455 18.0224 17.0842 18.0427C17.123 18.062 17.1156 18.1174 17.0667 18.1671C17.0179 18.2169 16.9921 18.2612 17.0077 18.2667C17.0234 18.2741 17.0741 18.239 17.122 18.1893C17.169 18.1413 17.4382 18.2123 17.7231 18.3506C18.007 18.487 18.2144 18.6216 18.1877 18.6474C18.1619 18.6742 18.396 18.7949 18.7095 18.9175C19.0229 19.042 19.2414 19.1766 19.1962 19.219C19.152 19.2605 18.9445 19.6043 18.7417 19.9896C18.62 20.2201 18.4993 20.4533 18.3804 20.6902C18.3324 20.7861 18.2882 20.8838 18.2439 20.9797C18.1711 21.141 18.5472 20.8709 19.0837 20.3777C19.6203 19.8855 20.1844 19.549 20.3467 19.6273C20.4462 19.6762 20.5458 19.7232 20.6417 19.7675C20.7883 19.8348 20.9357 19.9131 21.0842 19.9979C21.3248 20.1334 21.1183 20.6276 20.6288 21.0866C20.1402 21.5457 19.5742 22.227 19.3704 22.6123C19.2488 22.8428 19.128 23.076 19.01 23.312C18.9621 23.4079 18.9178 23.5056 18.8736 23.6015C18.8007 23.7637 19.3502 23.3332 20.0996 22.6437C20.3402 22.4233 20.5901 22.1929 20.8509 21.9513C21.5995 21.2618 22.8735 21.1899 23.7391 21.7246C23.8838 21.8149 24.0286 21.8997 24.1742 21.9818C25.062 22.4796 25.4694 23.0262 24.955 23.5028C24.4406 23.9803 24.2305 24.5445 24.4858 24.7639C24.6213 24.8801 24.778 25.0137 24.9477 25.1612C24.9735 25.1824 24.9993 25.2018 25.026 25.2184C25.0712 25.247 25.5229 24.8819 26.0327 24.4062C26.5425 23.9315 27.0384 23.3664 27.1398 23.1442C27.2007 23.0106 27.2624 22.8787 27.3279 22.7451C27.362 22.6778 27.397 22.6123 27.4311 22.5469C27.4892 22.4381 27.5648 22.3358 27.5998 22.3192C27.621 22.309 27.6432 22.2989 27.6625 22.2869C30.2004 20.7474 30.6106 17.2268 32.3714 14.6899C32.9521 13.8547 33.968 13.3145 34.4068 13.2029C34.7728 13.108 35.112 12.9891 35.1839 12.9467C36.2597 12.318 35.2328 13.0684 35.0198 13.167C34.1837 13.5532 34.8346 13.7671 35.419 13.6565C38.7008 13.0333 36.5372 13.5957 35.1885 14.6226C34.9101 14.8337 35.2651 14.9508 35.4513 14.948C35.6993 14.9434 35.9399 14.948 36.1777 14.9609C36.5796 14.984 36.5354 15.3748 36.0837 15.7998C35.6301 16.2248 35.0936 16.8775 34.8917 17.2628C34.7691 17.4933 34.6483 17.7265 34.5294 17.9634C34.4806 18.0593 34.4372 18.1561 34.3948 18.2519C34.3211 18.4133 34.8705 17.9846 35.6191 17.2951C35.9057 17.0323 36.2063 16.7558 36.5206 16.4672C37.2692 15.7768 38.1366 15.2799 38.451 15.3813C38.7672 15.4827 38.9976 15.6007 38.9783 15.62C38.958 15.6385 38.7718 15.9621 38.569 16.3474C38.4473 16.5779 38.3265 16.812 38.2067 17.0489C38.1597 17.1448 38.1145 17.2425 38.0712 17.3384C37.9984 17.4997 38.3496 17.2527 38.8575 16.7862C39.3645 16.3207 40.0154 16.0662 40.2984 16.2405C40.5842 16.4138 40.7814 16.5926 40.7556 16.6175C40.7298 16.6415 40.7612 16.671 40.8248 16.6829C40.8893 16.6977 41.6203 17.1844 42.3348 17.9109C43.1875 18.7774 43.9222 19.7813 44.5758 20.8626C45.5032 22.392 44.8155 22.9552 46.2462 23.7434C46.9689 24.1435 48.914 23.8458 49.4902 23.7407C54.2544 22.8649 49.1593 24.7455 47.2234 25.5503C47.1192 25.5927 46.5947 25.8489 46.8343 26.0232C46.9708 26.1237 47.11 26.2241 47.2464 26.3237C47.2741 26.344 47.3202 26.3477 47.357 26.3597C47.393 26.3698 47.4225 26.3781 47.4483 26.3827C47.499 26.3938 48.1627 26.5145 48.938 26.5837C49.3012 26.6159 49.6893 26.6334 50.3448 26.6611C51.0804 26.6952 48.2577 27.8024 47.8392 27.9858Z" fill="#00202E"/>
</svg>
